<svg width="799" height="329" viewBox="0 0 799 329" fill="none" xmlns="http://www.w3.org/2000/svg">
<mask id="path-1-inside-1_135_67" fill="white">
<path fill-rule="evenodd" clip-rule="evenodd" d="M437 38.5C437 17.237 419.763 0 398.5 0H40C17.9086 0 0 17.9086 0 40V114.976C0 114.989 0.0107275 115 0.0239606 115V115C0.0376564 115 0.0485651 115.011 0.0479001 115.025C0.0160899 115.679 0 116.338 0 117V289C0 311.091 17.9086 329 40 329H759C781.091 329 799 311.091 799 289V117C799 94.9086 781.091 77 759 77H475.5C454.237 77 437 59.763 437 38.5V38.5Z"/>
</mask>
<path fill-rule="evenodd" clip-rule="evenodd" d="M437 38.5C437 17.237 419.763 0 398.5 0H40C17.9086 0 0 17.9086 0 40V114.976C0 114.989 0.0107275 115 0.0239606 115V115C0.0376564 115 0.0485651 115.011 0.0479001 115.025C0.0160899 115.679 0 116.338 0 117V289C0 311.091 17.9086 329 40 329H759C781.091 329 799 311.091 799 289V117C799 94.9086 781.091 77 759 77H475.5C454.237 77 437 59.763 437 38.5V38.5Z" fill="white"/>
<path d="M0.0479001 115.025L-1.94974 114.928L0.0479001 115.025ZM40 2H398.5V-2H40V2ZM2 114.976V40H-2V114.976H2ZM2 117C2 116.37 2.0153 115.744 2.04554 115.122L-1.94974 114.928C-1.98312 115.615 -2 116.305 -2 117H2ZM2 289V117H-2V289H2ZM40 327C19.0132 327 2 309.987 2 289H-2C-2 312.196 16.8041 331 40 331V327ZM759 327H40V331H759V327ZM797 289C797 309.987 779.987 327 759 327V331C782.196 331 801 312.196 801 289H797ZM797 117V289H801V117H797ZM759 79C779.987 79 797 96.0132 797 117H801C801 93.804 782.196 75 759 75V79ZM475.5 79H759V75H475.5V79ZM0.0239606 117C-1.10562 117 -2.00454 116.055 -1.94974 114.928L2.04554 115.122C2.10167 113.968 1.18093 113 0.0239606 113V117ZM-2 114.976C-2 116.094 -1.09384 117 0.0239606 117V113C1.1153 113 2 113.885 2 114.976H-2ZM475.5 75C455.342 75 439 58.6584 439 38.5H435C435 60.8675 453.132 79 475.5 79V75ZM398.5 2C418.658 2 435 18.3416 435 38.5H439C439 16.1325 420.868 -2 398.5 -2V2ZM40 -2C16.804 -2 -2 16.804 -2 40H2C2 19.0132 19.0132 2 40 2V-2Z" fill="#E5C5BF" mask="url(#path-1-inside-1_135_67)"/>
</svg>
