<svg width="200" height="171" viewBox="0 0 200 171" fill="none" xmlns="http://www.w3.org/2000/svg">
<rect x="0.75" y="0.75" width="198.5" height="169.5" rx="29.25" fill="white" stroke="#E5C5BF" stroke-width="1.5"/>
<path d="M34.4106 26C34.1346 26 33.8946 25.898 33.6906 25.694C33.4866 25.49 33.3846 25.25 33.3846 24.974V13.886C33.3846 13.61 33.4866 13.37 33.6906 13.166C33.8946 12.962 34.1346 12.86 34.4106 12.86H35.4366C35.7486 12.86 36.0306 12.944 36.2826 13.112C36.5346 13.28 36.7206 13.508 36.8406 13.796L39.6306 20.582C39.6306 20.594 39.6366 20.6 39.6486 20.6C39.6606 20.6 39.6666 20.594 39.6666 20.582L42.4566 13.796C42.5766 13.508 42.7626 13.28 43.0146 13.112C43.2666 12.944 43.5486 12.86 43.8606 12.86H44.9586C45.2346 12.86 45.4746 12.962 45.6786 13.166C45.8826 13.37 45.9846 13.61 45.9846 13.886V24.974C45.9846 25.25 45.8826 25.49 45.6786 25.694C45.4746 25.898 45.2346 26 44.9586 26H44.0946C43.8186 26 43.5786 25.898 43.3746 25.694C43.1826 25.49 43.0866 25.25 43.0866 24.974V17.972C43.0866 17.96 43.0806 17.954 43.0686 17.954C43.0446 17.954 43.0326 17.96 43.0326 17.972L41.3046 22.058C41.1846 22.346 40.9926 22.574 40.7286 22.742C40.4766 22.91 40.1946 22.994 39.8826 22.994H39.4146C39.1026 22.994 38.8146 22.91 38.5506 22.742C38.2986 22.574 38.1126 22.346 37.9926 22.058L36.2646 17.972C36.2646 17.96 36.2526 17.954 36.2286 17.954C36.2166 17.954 36.2106 17.96 36.2106 17.972V24.974C36.2106 25.25 36.1086 25.49 35.9046 25.694C35.7126 25.898 35.4786 26 35.2026 26H34.4106ZM52.5467 18.422C52.0067 18.422 51.5987 18.566 51.3227 18.854C51.0467 19.13 50.8727 19.61 50.8007 20.294C50.8007 20.39 50.8427 20.438 50.9267 20.438H53.9687C54.0767 20.438 54.1307 20.384 54.1307 20.276C54.0827 19.04 53.5547 18.422 52.5467 18.422ZM52.9967 26.18C51.3647 26.18 50.1047 25.766 49.2167 24.938C48.3407 24.11 47.9027 22.904 47.9027 21.32C47.9027 19.748 48.2927 18.548 49.0727 17.72C49.8647 16.88 51.0047 16.46 52.4927 16.46C55.3487 16.46 56.8007 18.02 56.8487 21.14C56.8487 21.428 56.7347 21.674 56.5067 21.878C56.2907 22.07 56.0387 22.166 55.7507 22.166H50.9447C50.8247 22.166 50.7767 22.22 50.8007 22.328C50.8967 22.988 51.1487 23.462 51.5567 23.75C51.9767 24.026 52.6007 24.164 53.4287 24.164C53.9687 24.164 54.5507 24.086 55.1747 23.93C55.4267 23.87 55.6487 23.918 55.8407 24.074C56.0447 24.23 56.1467 24.434 56.1467 24.686V24.722C56.1467 25.022 56.0507 25.298 55.8587 25.55C55.6787 25.79 55.4447 25.934 55.1567 25.982C54.4607 26.114 53.7407 26.18 52.9967 26.18ZM59.1789 18.836C58.9029 18.836 58.6629 18.734 58.4589 18.53C58.2549 18.326 58.1529 18.086 58.1529 17.81V17.666C58.1529 17.39 58.2549 17.15 58.4589 16.946C58.6629 16.742 58.9029 16.64 59.1789 16.64H65.6949C65.9709 16.64 66.2109 16.742 66.4149 16.946C66.6189 17.15 66.7209 17.39 66.7209 17.666V17.81C66.7209 18.086 66.6189 18.326 66.4149 18.53C66.2109 18.734 65.9709 18.836 65.6949 18.836H64.0929C63.9969 18.836 63.9489 18.89 63.9489 18.998V24.974C63.9489 25.25 63.8469 25.49 63.6429 25.694C63.4389 25.898 63.1989 26 62.9229 26H61.9509C61.6749 26 61.4349 25.898 61.2309 25.694C61.0269 25.49 60.9249 25.25 60.9249 24.974V18.998C60.9249 18.89 60.8769 18.836 60.7809 18.836H59.1789ZM73.9722 19.16C73.6842 18.716 73.2402 18.494 72.6402 18.494C72.0402 18.494 71.5902 18.716 71.2902 19.16C71.0022 19.604 70.8582 20.324 70.8582 21.32C70.8582 22.316 71.0022 23.036 71.2902 23.48C71.5902 23.924 72.0402 24.146 72.6402 24.146C73.2402 24.146 73.6842 23.924 73.9722 23.48C74.2722 23.036 74.4222 22.316 74.4222 21.32C74.4222 20.324 74.2722 19.604 73.9722 19.16ZM76.1142 24.902C75.2862 25.754 74.1282 26.18 72.6402 26.18C71.1522 26.18 69.9942 25.754 69.1662 24.902C68.3382 24.05 67.9242 22.856 67.9242 21.32C67.9242 19.784 68.3382 18.59 69.1662 17.738C69.9942 16.886 71.1522 16.46 72.6402 16.46C74.1282 16.46 75.2862 16.886 76.1142 17.738C76.9422 18.59 77.3562 19.784 77.3562 21.32C77.3562 22.856 76.9422 24.05 76.1142 24.902ZM82.4131 23.84C82.3891 23.864 82.3831 23.894 82.3951 23.93C82.4191 23.954 82.4491 23.966 82.4851 23.966H85.1671C85.2631 23.966 85.3111 23.912 85.3111 23.804V18.836C85.3111 18.728 85.2631 18.674 85.1671 18.674H83.4931C83.3851 18.674 83.3311 18.734 83.3311 18.854C83.3311 20.546 83.2831 21.644 83.1871 22.148C83.1031 22.64 82.8451 23.204 82.4131 23.84ZM79.4971 28.16C79.2211 28.16 78.9811 28.058 78.7771 27.854C78.5731 27.65 78.4711 27.41 78.4711 27.134V24.614C78.4711 24.434 78.5371 24.284 78.6691 24.164C78.8011 24.032 78.9571 23.966 79.1371 23.966C79.1971 23.966 79.2451 23.942 79.2811 23.894C79.8811 23.174 80.2471 22.544 80.3791 22.004C80.5111 21.464 80.5771 20.354 80.5771 18.674V17.666C80.5771 17.39 80.6791 17.15 80.8831 16.946C81.0871 16.742 81.3271 16.64 81.6031 16.64H87.1111C87.3871 16.64 87.6271 16.742 87.8311 16.946C88.0351 17.15 88.1371 17.39 88.1371 17.666V23.804C88.1371 23.912 88.1911 23.966 88.2991 23.966H88.3171C88.5931 23.966 88.8331 24.068 89.0371 24.272C89.2411 24.464 89.3431 24.698 89.3431 24.974V27.134C89.3431 27.41 89.2411 27.65 89.0371 27.854C88.8331 28.058 88.5931 28.16 88.3171 28.16H87.5431C87.2671 28.16 87.0271 28.058 86.8231 27.854C86.6191 27.65 86.5171 27.41 86.5171 27.134V26.162C86.5171 26.054 86.4631 26 86.3551 26H81.4591C81.3511 26 81.2971 26.054 81.2971 26.162V27.134C81.2971 27.41 81.1951 27.65 80.9911 27.854C80.7871 28.058 80.5471 28.16 80.2711 28.16H79.4971ZM92.1154 26C91.8394 26 91.5994 25.898 91.3954 25.694C91.1914 25.49 91.0894 25.25 91.0894 24.974V17.666C91.0894 17.39 91.1914 17.15 91.3954 16.946C91.5994 16.742 91.8394 16.64 92.1154 16.64H92.9614C93.2374 16.64 93.4774 16.742 93.6814 16.946C93.8854 17.15 93.9874 17.39 93.9874 17.666V22.022H94.0054H94.0234L96.2374 17.558C96.5374 16.946 97.0294 16.64 97.7134 16.64H98.5954C98.8714 16.64 99.1114 16.742 99.3154 16.946C99.5194 17.15 99.6214 17.39 99.6214 17.666V24.974C99.6214 25.25 99.5194 25.49 99.3154 25.694C99.1114 25.898 98.8714 26 98.5954 26H97.7494C97.4734 26 97.2334 25.898 97.0294 25.694C96.8254 25.49 96.7234 25.25 96.7234 24.974V20.618H96.7054H96.6874L94.4734 25.082C94.1734 25.694 93.6814 26 92.9974 26H92.1154ZM105.497 23.534C104.141 23.534 103.187 23.294 102.635 22.814C102.095 22.334 101.825 21.506 101.825 20.33V17.666C101.825 17.39 101.927 17.15 102.131 16.946C102.335 16.742 102.575 16.64 102.851 16.64H103.643C103.919 16.64 104.159 16.742 104.363 16.946C104.567 17.15 104.669 17.39 104.669 17.666V19.754C104.669 20.45 104.753 20.894 104.921 21.086C105.089 21.278 105.455 21.374 106.019 21.374C106.511 21.374 106.973 21.278 107.405 21.086C107.501 21.05 107.549 20.978 107.549 20.87V17.666C107.549 17.39 107.651 17.15 107.855 16.946C108.059 16.742 108.299 16.64 108.575 16.64H109.403C109.679 16.64 109.919 16.742 110.123 16.946C110.327 17.15 110.429 17.39 110.429 17.666V24.974C110.429 25.25 110.327 25.49 110.123 25.694C109.919 25.898 109.679 26 109.403 26H108.575C108.299 26 108.059 25.898 107.855 25.694C107.651 25.49 107.549 25.25 107.549 24.974V23.282C107.549 23.174 107.501 23.144 107.405 23.192C106.805 23.42 106.169 23.534 105.497 23.534ZM116.812 18.422C116.272 18.422 115.864 18.566 115.588 18.854C115.312 19.13 115.138 19.61 115.066 20.294C115.066 20.39 115.108 20.438 115.192 20.438H118.234C118.342 20.438 118.396 20.384 118.396 20.276C118.348 19.04 117.82 18.422 116.812 18.422ZM117.262 26.18C115.63 26.18 114.37 25.766 113.482 24.938C112.606 24.11 112.168 22.904 112.168 21.32C112.168 19.748 112.558 18.548 113.338 17.72C114.13 16.88 115.27 16.46 116.758 16.46C119.614 16.46 121.066 18.02 121.114 21.14C121.114 21.428 121 21.674 120.772 21.878C120.556 22.07 120.304 22.166 120.016 22.166H115.21C115.09 22.166 115.042 22.22 115.066 22.328C115.162 22.988 115.414 23.462 115.822 23.75C116.242 24.026 116.866 24.164 117.694 24.164C118.234 24.164 118.816 24.086 119.44 23.93C119.692 23.87 119.914 23.918 120.106 24.074C120.31 24.23 120.412 24.434 120.412 24.686V24.722C120.412 25.022 120.316 25.298 120.124 25.55C119.944 25.79 119.71 25.934 119.422 25.982C118.726 26.114 118.006 26.18 117.262 26.18ZM127.135 26.18C125.587 26.18 124.399 25.772 123.571 24.956C122.743 24.14 122.329 22.928 122.329 21.32C122.329 19.748 122.725 18.548 123.517 17.72C124.321 16.88 125.467 16.46 126.955 16.46C127.447 16.46 128.101 16.514 128.917 16.622C129.217 16.67 129.457 16.808 129.637 17.036C129.829 17.252 129.925 17.51 129.925 17.81V17.99C129.925 18.242 129.823 18.446 129.619 18.602C129.415 18.758 129.187 18.812 128.935 18.764C128.443 18.68 127.939 18.638 127.423 18.638C126.739 18.638 126.229 18.854 125.893 19.286C125.557 19.706 125.389 20.384 125.389 21.32C125.389 22.268 125.569 22.952 125.929 23.372C126.289 23.792 126.847 24.002 127.603 24.002C128.155 24.002 128.653 23.954 129.097 23.858C129.349 23.798 129.571 23.846 129.763 24.002C129.967 24.158 130.069 24.362 130.069 24.614V24.794C130.069 25.094 129.973 25.364 129.781 25.604C129.589 25.832 129.349 25.97 129.061 26.018C128.401 26.126 127.759 26.18 127.135 26.18ZM133.371 26C133.095 26 132.855 25.898 132.651 25.694C132.459 25.49 132.363 25.25 132.363 24.974V17.666C132.363 17.39 132.459 17.15 132.651 16.946C132.855 16.742 133.095 16.64 133.371 16.64H134.253C134.529 16.64 134.763 16.742 134.955 16.946C135.159 17.15 135.261 17.39 135.261 17.666V20.168C135.261 20.18 135.267 20.186 135.279 20.186L135.315 20.168L137.565 17.432C137.997 16.904 138.549 16.64 139.221 16.64H140.517C140.709 16.64 140.847 16.73 140.931 16.91C141.027 17.09 141.009 17.258 140.877 17.414L137.799 21.032C137.739 21.104 137.739 21.182 137.799 21.266L140.913 25.208C141.045 25.376 141.063 25.55 140.967 25.73C140.871 25.91 140.721 26 140.517 26H139.221C138.549 26 138.003 25.73 137.583 25.19L135.315 22.238C135.303 22.226 135.291 22.22 135.279 22.22C135.267 22.22 135.261 22.226 135.261 22.238V24.974C135.261 25.25 135.159 25.49 134.955 25.694C134.763 25.898 134.529 26 134.253 26H133.371ZM143.883 26C143.607 26 143.367 25.898 143.163 25.694C142.959 25.49 142.857 25.25 142.857 24.974V17.666C142.857 17.39 142.959 17.15 143.163 16.946C143.367 16.742 143.607 16.64 143.883 16.64H144.729C145.005 16.64 145.245 16.742 145.449 16.946C145.653 17.15 145.755 17.39 145.755 17.666V22.022H145.773H145.791L148.005 17.558C148.305 16.946 148.797 16.64 149.481 16.64H150.363C150.639 16.64 150.879 16.742 151.083 16.946C151.287 17.15 151.389 17.39 151.389 17.666V24.974C151.389 25.25 151.287 25.49 151.083 25.694C150.879 25.898 150.639 26 150.363 26H149.517C149.241 26 149.001 25.898 148.797 25.694C148.593 25.49 148.491 25.25 148.491 24.974V20.618H148.473H148.455L146.241 25.082C145.941 25.694 145.449 26 144.765 26H143.883ZM157.787 18.422C157.247 18.422 156.839 18.566 156.563 18.854C156.287 19.13 156.113 19.61 156.041 20.294C156.041 20.39 156.083 20.438 156.167 20.438H159.209C159.317 20.438 159.371 20.384 159.371 20.276C159.323 19.04 158.795 18.422 157.787 18.422ZM158.237 26.18C156.605 26.18 155.345 25.766 154.457 24.938C153.581 24.11 153.143 22.904 153.143 21.32C153.143 19.748 153.533 18.548 154.313 17.72C155.105 16.88 156.245 16.46 157.733 16.46C160.589 16.46 162.041 18.02 162.089 21.14C162.089 21.428 161.975 21.674 161.747 21.878C161.531 22.07 161.279 22.166 160.991 22.166H156.185C156.065 22.166 156.017 22.22 156.041 22.328C156.137 22.988 156.389 23.462 156.797 23.75C157.217 24.026 157.841 24.164 158.669 24.164C159.209 24.164 159.791 24.086 160.415 23.93C160.667 23.87 160.889 23.918 161.081 24.074C161.285 24.23 161.387 24.434 161.387 24.686V24.722C161.387 25.022 161.291 25.298 161.099 25.55C160.919 25.79 160.685 25.934 160.397 25.982C159.701 26.114 158.981 26.18 158.237 26.18ZM37.7097 47.204V49.436C37.7097 49.832 37.8897 50.198 38.2497 50.534C38.6217 50.858 39.0417 51.02 39.5097 51.02C40.0617 51.02 40.4997 50.798 40.8237 50.354C41.1477 49.898 41.3097 49.22 41.3097 48.32C41.3097 46.52 40.7097 45.62 39.5097 45.62C39.0417 45.62 38.6217 45.788 38.2497 46.124C37.8897 46.448 37.7097 46.808 37.7097 47.204ZM35.8917 56.96C35.6157 56.96 35.3757 56.858 35.1717 56.654C34.9677 56.45 34.8657 56.21 34.8657 55.934V44.666C34.8657 44.39 34.9677 44.15 35.1717 43.946C35.3757 43.742 35.6157 43.64 35.8917 43.64H36.6117C36.8997 43.64 37.1457 43.742 37.3497 43.946C37.5537 44.138 37.6617 44.378 37.6737 44.666V44.81C37.6737 44.822 37.6797 44.828 37.6917 44.828L37.7277 44.792C38.4957 43.904 39.4197 43.46 40.4997 43.46C41.6157 43.46 42.5037 43.88 43.1637 44.72C43.8357 45.56 44.1717 46.76 44.1717 48.32C44.1717 49.832 43.8237 51.02 43.1277 51.884C42.4437 52.748 41.5677 53.18 40.4997 53.18C39.5037 53.18 38.6157 52.814 37.8357 52.082C37.8237 52.07 37.8117 52.064 37.7997 52.064C37.7877 52.064 37.7817 52.07 37.7817 52.082V55.934C37.7817 56.21 37.6797 56.45 37.4757 56.654C37.2717 56.858 37.0317 56.96 36.7557 56.96H35.8917ZM50.0243 45.422C49.4843 45.422 49.0763 45.566 48.8003 45.854C48.5243 46.13 48.3503 46.61 48.2783 47.294C48.2783 47.39 48.3203 47.438 48.4043 47.438H51.4463C51.5543 47.438 51.6083 47.384 51.6083 47.276C51.5603 46.04 51.0323 45.422 50.0243 45.422ZM50.4743 53.18C48.8423 53.18 47.5823 52.766 46.6943 51.938C45.8183 51.11 45.3803 49.904 45.3803 48.32C45.3803 46.748 45.7703 45.548 46.5503 44.72C47.3423 43.88 48.4823 43.46 49.9703 43.46C52.8263 43.46 54.2783 45.02 54.3263 48.14C54.3263 48.428 54.2123 48.674 53.9843 48.878C53.7683 49.07 53.5163 49.166 53.2283 49.166H48.4223C48.3023 49.166 48.2543 49.22 48.2783 49.328C48.3743 49.988 48.6263 50.462 49.0343 50.75C49.4543 51.026 50.0783 51.164 50.9063 51.164C51.4463 51.164 52.0283 51.086 52.6523 50.93C52.9043 50.87 53.1263 50.918 53.3183 51.074C53.5223 51.23 53.6243 51.434 53.6243 51.686V51.722C53.6243 52.022 53.5283 52.298 53.3363 52.55C53.1563 52.79 52.9223 52.934 52.6343 52.982C51.9383 53.114 51.2183 53.18 50.4743 53.18ZM57.1784 53C56.9024 53 56.6624 52.898 56.4584 52.694C56.2664 52.49 56.1704 52.25 56.1704 51.974V44.666C56.1704 44.39 56.2664 44.15 56.4584 43.946C56.6624 43.742 56.9024 43.64 57.1784 43.64H58.0604C58.3364 43.64 58.5704 43.742 58.7624 43.946C58.9664 44.15 59.0684 44.39 59.0684 44.666V47.168C59.0684 47.18 59.0744 47.186 59.0864 47.186L59.1224 47.168L61.3724 44.432C61.8044 43.904 62.3564 43.64 63.0284 43.64H64.3244C64.5164 43.64 64.6544 43.73 64.7384 43.91C64.8344 44.09 64.8164 44.258 64.6844 44.414L61.6064 48.032C61.5464 48.104 61.5464 48.182 61.6064 48.266L64.7204 52.208C64.8524 52.376 64.8704 52.55 64.7744 52.73C64.6784 52.91 64.5284 53 64.3244 53H63.0284C62.3564 53 61.8104 52.73 61.3904 52.19L59.1224 49.238C59.1104 49.226 59.0984 49.22 59.0864 49.22C59.0744 49.22 59.0684 49.226 59.0684 49.238V51.974C59.0684 52.25 58.9664 52.49 58.7624 52.694C58.5704 52.898 58.3364 53 58.0604 53H57.1784ZM72.0826 46.16C71.7946 45.716 71.3506 45.494 70.7506 45.494C70.1506 45.494 69.7006 45.716 69.4006 46.16C69.1126 46.604 68.9686 47.324 68.9686 48.32C68.9686 49.316 69.1126 50.036 69.4006 50.48C69.7006 50.924 70.1506 51.146 70.7506 51.146C71.3506 51.146 71.7946 50.924 72.0826 50.48C72.3826 50.036 72.5326 49.316 72.5326 48.32C72.5326 47.324 72.3826 46.604 72.0826 46.16ZM74.2246 51.902C73.3966 52.754 72.2386 53.18 70.7506 53.18C69.2626 53.18 68.1046 52.754 67.2766 51.902C66.4486 51.05 66.0346 49.856 66.0346 48.32C66.0346 46.784 66.4486 45.59 67.2766 44.738C68.1046 43.886 69.2626 43.46 70.7506 43.46C72.2386 43.46 73.3966 43.886 74.2246 44.738C75.0526 45.59 75.4666 46.784 75.4666 48.32C75.4666 49.856 75.0526 51.05 74.2246 51.902ZM78.2194 53C77.9434 53 77.7034 52.898 77.4994 52.694C77.3074 52.49 77.2114 52.25 77.2114 51.974V44.666C77.2114 44.39 77.3074 44.15 77.4994 43.946C77.7034 43.742 77.9434 43.64 78.2194 43.64H79.1734C79.4734 43.64 79.7554 43.73 80.0194 43.91C80.2834 44.078 80.4814 44.3 80.6134 44.576L82.4674 48.824L82.5034 48.842L82.5214 48.824L84.3934 44.576C84.5254 44.3 84.7174 44.078 84.9694 43.91C85.2334 43.73 85.5154 43.64 85.8154 43.64H86.8234C87.0994 43.64 87.3334 43.742 87.5254 43.946C87.7294 44.15 87.8314 44.39 87.8314 44.666V51.974C87.8314 52.25 87.7294 52.49 87.5254 52.694C87.3334 52.898 87.0994 53 86.8234 53H85.9954C85.7194 53 85.4794 52.898 85.2754 52.694C85.0834 52.49 84.9874 52.25 84.9874 51.974V47.582L84.9694 47.564L84.9514 47.582L83.9614 49.922C83.8414 50.21 83.6494 50.438 83.3854 50.606C83.1334 50.774 82.8514 50.858 82.5394 50.858H82.4494C82.1374 50.858 81.8494 50.774 81.5854 50.606C81.3334 50.438 81.1474 50.21 81.0274 49.922L80.0374 47.582L80.0194 47.564L80.0014 47.582V51.974C80.0014 52.25 79.8994 52.49 79.6954 52.694C79.5034 52.898 79.2694 53 78.9934 53H78.2194ZM94.2157 45.422C93.6757 45.422 93.2677 45.566 92.9917 45.854C92.7157 46.13 92.5417 46.61 92.4697 47.294C92.4697 47.39 92.5117 47.438 92.5957 47.438H95.6377C95.7457 47.438 95.7997 47.384 95.7997 47.276C95.7517 46.04 95.2237 45.422 94.2157 45.422ZM94.6657 53.18C93.0337 53.18 91.7737 52.766 90.8857 51.938C90.0097 51.11 89.5717 49.904 89.5717 48.32C89.5717 46.748 89.9617 45.548 90.7417 44.72C91.5337 43.88 92.6737 43.46 94.1617 43.46C97.0177 43.46 98.4697 45.02 98.5177 48.14C98.5177 48.428 98.4037 48.674 98.1757 48.878C97.9597 49.07 97.7077 49.166 97.4197 49.166H92.6137C92.4937 49.166 92.4457 49.22 92.4697 49.328C92.5657 49.988 92.8177 50.462 93.2257 50.75C93.6457 51.026 94.2697 51.164 95.0977 51.164C95.6377 51.164 96.2197 51.086 96.8437 50.93C97.0957 50.87 97.3177 50.918 97.5097 51.074C97.7137 51.23 97.8157 51.434 97.8157 51.686V51.722C97.8157 52.022 97.7197 52.298 97.5277 52.55C97.3477 52.79 97.1137 52.934 96.8257 52.982C96.1297 53.114 95.4097 53.18 94.6657 53.18ZM101.388 53C101.112 53 100.872 52.898 100.668 52.694C100.464 52.49 100.362 52.25 100.362 51.974V44.666C100.362 44.39 100.464 44.15 100.668 43.946C100.872 43.742 101.112 43.64 101.388 43.64H102.306C102.582 43.64 102.816 43.742 103.008 43.946C103.212 44.15 103.314 44.39 103.314 44.666V46.97C103.314 47.066 103.368 47.114 103.476 47.114H105.744C105.852 47.114 105.906 47.066 105.906 46.97V44.666C105.906 44.39 106.002 44.15 106.194 43.946C106.398 43.742 106.638 43.64 106.914 43.64H107.832C108.108 43.64 108.348 43.742 108.552 43.946C108.756 44.15 108.858 44.39 108.858 44.666V51.974C108.858 52.25 108.756 52.49 108.552 52.694C108.348 52.898 108.108 53 107.832 53H106.914C106.638 53 106.398 52.898 106.194 52.694C106.002 52.49 105.906 52.25 105.906 51.974V49.31C105.906 49.202 105.852 49.148 105.744 49.148H103.476C103.368 49.148 103.314 49.202 103.314 49.31V51.974C103.314 52.25 103.212 52.49 103.008 52.694C102.816 52.898 102.582 53 102.306 53H101.388ZM114.537 50.84C114.513 50.864 114.507 50.894 114.519 50.93C114.543 50.954 114.573 50.966 114.609 50.966H117.291C117.387 50.966 117.435 50.912 117.435 50.804V45.836C117.435 45.728 117.387 45.674 117.291 45.674H115.617C115.509 45.674 115.455 45.734 115.455 45.854C115.455 47.546 115.407 48.644 115.311 49.148C115.227 49.64 114.969 50.204 114.537 50.84ZM111.621 55.16C111.345 55.16 111.105 55.058 110.901 54.854C110.697 54.65 110.595 54.41 110.595 54.134V51.614C110.595 51.434 110.661 51.284 110.793 51.164C110.925 51.032 111.081 50.966 111.261 50.966C111.321 50.966 111.369 50.942 111.405 50.894C112.005 50.174 112.371 49.544 112.503 49.004C112.635 48.464 112.701 47.354 112.701 45.674V44.666C112.701 44.39 112.803 44.15 113.007 43.946C113.211 43.742 113.451 43.64 113.727 43.64H119.235C119.511 43.64 119.751 43.742 119.955 43.946C120.159 44.15 120.261 44.39 120.261 44.666V50.804C120.261 50.912 120.315 50.966 120.423 50.966H120.441C120.717 50.966 120.957 51.068 121.161 51.272C121.365 51.464 121.467 51.698 121.467 51.974V54.134C121.467 54.41 121.365 54.65 121.161 54.854C120.957 55.058 120.717 55.16 120.441 55.16H119.667C119.391 55.16 119.151 55.058 118.947 54.854C118.743 54.65 118.641 54.41 118.641 54.134V53.162C118.641 53.054 118.587 53 118.479 53H113.583C113.475 53 113.421 53.054 113.421 53.162V54.134C113.421 54.41 113.319 54.65 113.115 54.854C112.911 55.058 112.671 55.16 112.395 55.16H111.621ZM127.623 48.716C126.159 48.716 125.427 49.166 125.427 50.066C125.427 50.39 125.523 50.648 125.715 50.84C125.907 51.02 126.165 51.11 126.489 51.11C127.065 51.11 127.533 50.93 127.893 50.57C128.253 50.198 128.433 49.706 128.433 49.094V48.878C128.433 48.77 128.379 48.716 128.271 48.716H127.623ZM125.607 53.18C124.779 53.18 124.095 52.916 123.555 52.388C123.027 51.848 122.763 51.152 122.763 50.3C122.763 48.116 124.383 47.024 127.623 47.024H128.271C128.379 47.024 128.433 46.976 128.433 46.88V46.79C128.433 46.334 128.313 46.004 128.073 45.8C127.845 45.596 127.455 45.494 126.903 45.494C126.171 45.494 125.295 45.608 124.275 45.836C124.023 45.884 123.795 45.83 123.591 45.674C123.399 45.518 123.303 45.314 123.303 45.062V45.026C123.303 44.726 123.393 44.456 123.573 44.216C123.765 43.964 124.005 43.814 124.293 43.766C125.349 43.562 126.261 43.46 127.029 43.46C128.601 43.46 129.711 43.742 130.359 44.306C131.019 44.87 131.349 45.806 131.349 47.114V51.974C131.349 52.25 131.247 52.49 131.043 52.694C130.839 52.898 130.599 53 130.323 53H129.657C129.369 53 129.123 52.904 128.919 52.712C128.715 52.508 128.607 52.262 128.595 51.974V51.776C128.595 51.764 128.589 51.758 128.577 51.758C128.553 51.758 128.541 51.764 128.541 51.776C127.785 52.712 126.807 53.18 125.607 53.18ZM134.663 53C134.387 53 134.147 52.898 133.943 52.694C133.739 52.49 133.637 52.25 133.637 51.974V44.666C133.637 44.39 133.739 44.15 133.943 43.946C134.147 43.742 134.387 43.64 134.663 43.64H135.563C135.839 43.64 136.073 43.742 136.265 43.946C136.469 44.15 136.571 44.39 136.571 44.666V50.858C136.571 50.954 136.625 51.002 136.733 51.002H139.055C139.163 51.002 139.217 50.954 139.217 50.858V44.666C139.217 44.39 139.319 44.15 139.523 43.946C139.727 43.742 139.967 43.64 140.243 43.64H141.143C141.419 43.64 141.653 43.742 141.845 43.946C142.049 44.15 142.151 44.39 142.151 44.666V50.858C142.151 50.954 142.205 51.002 142.313 51.002H142.997C143.273 51.002 143.513 51.104 143.717 51.308C143.921 51.512 144.023 51.752 144.023 52.028V54.134C144.023 54.41 143.921 54.65 143.717 54.854C143.513 55.058 143.273 55.16 142.997 55.16H142.457C142.181 55.16 141.941 55.058 141.737 54.854C141.533 54.65 141.431 54.41 141.431 54.134V53.162C141.431 53.054 141.383 53 141.287 53H134.663ZM146.704 53C146.428 53 146.188 52.898 145.984 52.694C145.78 52.49 145.678 52.25 145.678 51.974V44.666C145.678 44.39 145.78 44.15 145.984 43.946C146.188 43.742 146.428 43.64 146.704 43.64H147.55C147.826 43.64 148.066 43.742 148.27 43.946C148.474 44.15 148.576 44.39 148.576 44.666V49.022H148.594H148.612L150.826 44.558C151.126 43.946 151.618 43.64 152.302 43.64H153.184C153.46 43.64 153.7 43.742 153.904 43.946C154.108 44.15 154.21 44.39 154.21 44.666V51.974C154.21 52.25 154.108 52.49 153.904 52.694C153.7 52.898 153.46 53 153.184 53H152.338C152.062 53 151.822 52.898 151.618 52.694C151.414 52.49 151.312 52.25 151.312 51.974V47.618H151.294H151.276L149.062 52.082C148.762 52.694 148.27 53 147.586 53H146.704ZM157.62 53C157.344 53 157.104 52.898 156.9 52.694C156.696 52.49 156.594 52.25 156.594 51.974V44.666C156.594 44.39 156.696 44.15 156.9 43.946C157.104 43.742 157.344 43.64 157.62 43.64H158.466C158.742 43.64 158.982 43.742 159.186 43.946C159.39 44.15 159.492 44.39 159.492 44.666V49.022H159.51H159.528L161.742 44.558C162.042 43.946 162.534 43.64 163.218 43.64H164.1C164.376 43.64 164.616 43.742 164.82 43.946C165.024 44.15 165.126 44.39 165.126 44.666V51.974C165.126 52.25 165.024 52.49 164.82 52.694C164.616 52.898 164.376 53 164.1 53H163.254C162.978 53 162.738 52.898 162.534 52.694C162.33 52.49 162.228 52.25 162.228 51.974V47.618H162.21H162.192L159.978 52.082C159.678 52.694 159.186 53 158.502 53H157.62Z" fill="#737589"/>
<line x1="2" y1="60" x2="198" y2="60" stroke="#F8EBE9" stroke-width="2"/>
<path d="M56.728 155.802C56.44 155.73 56.2 155.568 56.008 155.316C55.828 155.064 55.738 154.782 55.738 154.47V153.858C55.738 153.618 55.834 153.432 56.026 153.3C56.23 153.156 56.452 153.12 56.692 153.192C57.76 153.54 58.72 153.714 59.572 153.714C60.292 153.714 60.838 153.57 61.21 153.282C61.594 152.994 61.786 152.592 61.786 152.076C61.786 151.536 61.552 151.14 61.084 150.888C60.616 150.624 59.758 150.486 58.51 150.474C58.234 150.474 57.994 150.378 57.79 150.186C57.598 149.982 57.502 149.742 57.502 149.466V149.106C57.502 148.83 57.598 148.596 57.79 148.404C57.994 148.2 58.234 148.092 58.51 148.08C59.626 148.068 60.424 147.924 60.904 147.648C61.396 147.36 61.642 146.946 61.642 146.406C61.642 145.566 60.928 145.146 59.5 145.146C58.684 145.146 57.784 145.314 56.8 145.65C56.572 145.734 56.356 145.71 56.152 145.578C55.96 145.434 55.864 145.242 55.864 145.002V144.39C55.864 144.078 55.954 143.802 56.134 143.562C56.326 143.31 56.566 143.148 56.854 143.076C57.874 142.812 58.906 142.68 59.95 142.68C61.39 142.68 62.518 142.974 63.334 143.562C64.162 144.15 64.576 144.918 64.576 145.866C64.576 146.73 64.372 147.414 63.964 147.918C63.568 148.41 62.908 148.794 61.984 149.07C61.972 149.07 61.966 149.082 61.966 149.106C61.966 149.118 61.972 149.124 61.984 149.124C62.896 149.244 63.586 149.574 64.054 150.114C64.534 150.642 64.774 151.344 64.774 152.22C64.774 153.456 64.33 154.428 63.442 155.136C62.554 155.832 61.312 156.18 59.716 156.18C58.684 156.18 57.688 156.054 56.728 155.802ZM70.9339 151.716C69.4699 151.716 68.7379 152.166 68.7379 153.066C68.7379 153.39 68.8339 153.648 69.0259 153.84C69.2179 154.02 69.4759 154.11 69.7999 154.11C70.3759 154.11 70.8439 153.93 71.2039 153.57C71.5639 153.198 71.7439 152.706 71.7439 152.094V151.878C71.7439 151.77 71.6899 151.716 71.5819 151.716H70.9339ZM68.9179 156.18C68.0899 156.18 67.4059 155.916 66.8659 155.388C66.3379 154.848 66.0739 154.152 66.0739 153.3C66.0739 151.116 67.6939 150.024 70.9339 150.024H71.5819C71.6899 150.024 71.7439 149.976 71.7439 149.88V149.79C71.7439 149.334 71.6239 149.004 71.3839 148.8C71.1559 148.596 70.7659 148.494 70.2139 148.494C69.4819 148.494 68.6059 148.608 67.5859 148.836C67.3339 148.884 67.1059 148.83 66.9019 148.674C66.7099 148.518 66.6139 148.314 66.6139 148.062V148.026C66.6139 147.726 66.7039 147.456 66.8839 147.216C67.0759 146.964 67.3159 146.814 67.6039 146.766C68.6599 146.562 69.5719 146.46 70.3399 146.46C71.9119 146.46 73.0219 146.742 73.6699 147.306C74.3299 147.87 74.6599 148.806 74.6599 150.114V154.974C74.6599 155.25 74.5579 155.49 74.3539 155.694C74.1499 155.898 73.9099 156 73.6339 156H72.9679C72.6799 156 72.4339 155.904 72.2299 155.712C72.0259 155.508 71.9179 155.262 71.9059 154.974V154.776C71.9059 154.764 71.8999 154.758 71.8879 154.758C71.8639 154.758 71.8519 154.764 71.8519 154.776C71.0959 155.712 70.1179 156.18 68.9179 156.18ZM77.9738 156C77.6978 156 77.4578 155.898 77.2538 155.694C77.0498 155.49 76.9478 155.25 76.9478 154.974V147.666C76.9478 147.39 77.0498 147.15 77.2538 146.946C77.4578 146.742 77.6978 146.64 77.9738 146.64H83.6798C83.9558 146.64 84.1898 146.742 84.3818 146.946C84.5858 147.15 84.6878 147.39 84.6878 147.666V147.756C84.6878 148.032 84.5858 148.272 84.3818 148.476C84.1898 148.668 83.9558 148.764 83.6798 148.764H80.1338C80.0378 148.764 79.9898 148.818 79.9898 148.926V154.974C79.9898 155.25 79.8878 155.49 79.6838 155.694C79.4798 155.898 79.2398 156 78.9638 156H77.9738ZM89.284 150.204V152.436C89.284 152.832 89.464 153.198 89.824 153.534C90.196 153.858 90.616 154.02 91.084 154.02C91.636 154.02 92.074 153.798 92.398 153.354C92.722 152.898 92.884 152.22 92.884 151.32C92.884 149.52 92.284 148.62 91.084 148.62C90.616 148.62 90.196 148.788 89.824 149.124C89.464 149.448 89.284 149.808 89.284 150.204ZM87.466 159.96C87.19 159.96 86.95 159.858 86.746 159.654C86.542 159.45 86.44 159.21 86.44 158.934V147.666C86.44 147.39 86.542 147.15 86.746 146.946C86.95 146.742 87.19 146.64 87.466 146.64H88.186C88.474 146.64 88.72 146.742 88.924 146.946C89.128 147.138 89.236 147.378 89.248 147.666V147.81C89.248 147.822 89.254 147.828 89.266 147.828L89.302 147.792C90.07 146.904 90.994 146.46 92.074 146.46C93.19 146.46 94.078 146.88 94.738 147.72C95.41 148.56 95.746 149.76 95.746 151.32C95.746 152.832 95.398 154.02 94.702 154.884C94.018 155.748 93.142 156.18 92.074 156.18C91.078 156.18 90.19 155.814 89.41 155.082C89.398 155.07 89.386 155.064 89.374 155.064C89.362 155.064 89.356 155.07 89.356 155.082V158.934C89.356 159.21 89.254 159.45 89.05 159.654C88.846 159.858 88.606 159.96 88.33 159.96H87.466ZM100.338 155.856L97.1345 147.594C97.0385 147.366 97.0565 147.15 97.1885 146.946C97.3325 146.742 97.5305 146.64 97.7825 146.64H98.9345C99.2225 146.64 99.4865 146.736 99.7265 146.928C99.9665 147.108 100.128 147.342 100.212 147.63L101.706 153.228C101.706 153.24 101.712 153.246 101.724 153.246C101.736 153.246 101.742 153.24 101.742 153.228L103.38 147.612C103.452 147.324 103.608 147.09 103.848 146.91C104.1 146.73 104.382 146.64 104.694 146.64H105.702C105.954 146.64 106.146 146.742 106.278 146.946C106.422 147.15 106.452 147.366 106.368 147.594L103.218 156.126C102.726 157.446 102.108 158.412 101.364 159.024C100.62 159.636 99.6185 159.996 98.3585 160.104C98.0825 160.128 97.8425 160.038 97.6385 159.834C97.4345 159.642 97.3325 159.402 97.3325 159.114V158.97C97.3325 158.694 97.4285 158.454 97.6205 158.25C97.8245 158.046 98.0705 157.926 98.3585 157.89C98.8985 157.806 99.3125 157.632 99.6005 157.368C99.9005 157.116 100.146 156.708 100.338 156.144C100.35 156.096 100.356 156.048 100.356 156C100.356 155.952 100.35 155.904 100.338 155.856ZM108.37 155.892C108.082 155.832 107.848 155.682 107.668 155.442C107.488 155.19 107.398 154.914 107.398 154.614V154.542C107.398 154.29 107.5 154.092 107.704 153.948C107.908 153.792 108.13 153.744 108.37 153.804C109.102 153.984 109.87 154.074 110.674 154.074C111.934 154.074 112.564 153.75 112.564 153.102C112.564 152.778 112.36 152.532 111.952 152.364C111.556 152.196 110.848 152.1 109.828 152.076C109.588 152.064 109.378 151.974 109.198 151.806C109.018 151.626 108.928 151.416 108.928 151.176C108.928 150.936 109.012 150.732 109.18 150.564C109.36 150.384 109.57 150.288 109.81 150.276C111.574 150.228 112.456 149.904 112.456 149.304C112.456 148.752 111.814 148.476 110.53 148.476C109.954 148.476 109.288 148.584 108.532 148.8C108.28 148.86 108.052 148.824 107.848 148.692C107.656 148.548 107.56 148.35 107.56 148.098V148.008C107.56 147.696 107.65 147.42 107.83 147.18C108.022 146.94 108.262 146.79 108.55 146.73C109.318 146.55 110.08 146.46 110.836 146.46C112.216 146.46 113.302 146.694 114.094 147.162C114.898 147.63 115.3 148.194 115.3 148.854C115.3 149.382 115.114 149.844 114.742 150.24C114.37 150.624 113.812 150.906 113.068 151.086C113.056 151.086 113.05 151.092 113.05 151.104C113.05 151.128 113.062 151.14 113.086 151.14C113.77 151.224 114.328 151.488 114.76 151.932C115.192 152.376 115.408 152.892 115.408 153.48C115.408 154.296 115.012 154.95 114.22 155.442C113.44 155.934 112.312 156.18 110.836 156.18C110.08 156.18 109.258 156.084 108.37 155.892ZM118.263 156C117.987 156 117.747 155.898 117.543 155.694C117.339 155.49 117.237 155.25 117.237 154.974V147.666C117.237 147.39 117.339 147.15 117.543 146.946C117.747 146.742 117.987 146.64 118.263 146.64H119.109C119.385 146.64 119.625 146.742 119.829 146.946C120.033 147.15 120.135 147.39 120.135 147.666V152.022H120.153H120.171L122.385 147.558C122.685 146.946 123.177 146.64 123.861 146.64H124.743C125.019 146.64 125.259 146.742 125.463 146.946C125.667 147.15 125.769 147.39 125.769 147.666V154.974C125.769 155.25 125.667 155.49 125.463 155.694C125.259 155.898 125.019 156 124.743 156H123.897C123.621 156 123.381 155.898 123.177 155.694C122.973 155.49 122.871 155.25 122.871 154.974V150.618H122.853H122.835L120.621 155.082C120.321 155.694 119.829 156 119.145 156H118.263ZM128.639 148.836C128.363 148.836 128.123 148.734 127.919 148.53C127.715 148.326 127.613 148.086 127.613 147.81V147.666C127.613 147.39 127.715 147.15 127.919 146.946C128.123 146.742 128.363 146.64 128.639 146.64H135.155C135.431 146.64 135.671 146.742 135.875 146.946C136.079 147.15 136.181 147.39 136.181 147.666V147.81C136.181 148.086 136.079 148.326 135.875 148.53C135.671 148.734 135.431 148.836 135.155 148.836H133.553C133.457 148.836 133.409 148.89 133.409 148.998V154.974C133.409 155.25 133.307 155.49 133.103 155.694C132.899 155.898 132.659 156 132.383 156H131.411C131.135 156 130.895 155.898 130.691 155.694C130.487 155.49 130.385 155.25 130.385 154.974V148.998C130.385 148.89 130.337 148.836 130.241 148.836H128.639ZM140.894 151.302V153.876C140.894 153.996 140.936 154.062 141.02 154.074C141.2 154.122 141.404 154.146 141.632 154.146C142.232 154.146 142.67 154.014 142.946 153.75C143.222 153.486 143.36 153.078 143.36 152.526C143.36 152.058 143.21 151.698 142.91 151.446C142.622 151.182 142.19 151.05 141.614 151.05C141.47 151.05 141.278 151.074 141.038 151.122C140.942 151.146 140.894 151.206 140.894 151.302ZM139.004 156.054C138.716 156.018 138.476 155.892 138.284 155.676C138.104 155.448 138.014 155.184 138.014 154.884V147.666C138.014 147.39 138.11 147.15 138.302 146.946C138.506 146.742 138.746 146.64 139.022 146.64H139.868C140.144 146.64 140.384 146.742 140.588 146.946C140.792 147.15 140.894 147.39 140.894 147.666V148.962C140.894 148.998 140.906 149.034 140.93 149.07C140.954 149.094 140.984 149.1 141.02 149.088C141.308 149.04 141.656 149.016 142.064 149.016C143.348 149.016 144.344 149.334 145.052 149.97C145.76 150.594 146.114 151.446 146.114 152.526C146.114 153.762 145.73 154.68 144.962 155.28C144.194 155.88 142.988 156.18 141.344 156.18C140.492 156.18 139.712 156.138 139.004 156.054Z" fill="#737589" fill-opacity="0.3"/>
<path fill-rule="evenodd" clip-rule="evenodd" d="M100.5 74.3857C101.093 74.3857 101.656 74.6448 102.042 75.0951L110.167 84.5742C110.897 85.426 110.799 86.7083 109.947 87.4384C109.095 88.1685 107.813 88.0698 107.083 87.2181L102.531 81.908V111.625C102.531 112.747 101.622 113.657 100.5 113.657C99.3782 113.657 98.4688 112.747 98.4688 111.625V81.908L93.9172 87.2181C93.1872 88.0698 91.9048 88.1685 91.0531 87.4384C90.2013 86.7083 90.1027 85.426 90.8328 84.5742L98.9579 75.0951C99.3435 74.6448 99.9072 74.3857 100.5 74.3857ZM86.947 93.3494C88.0688 93.3432 88.9833 94.2475 88.9896 95.3693C88.9958 96.4911 88.0915 97.4056 86.9697 97.4118C84.0081 97.4283 81.9089 97.5052 80.3157 97.7979C78.7806 98.0798 77.8921 98.5327 77.2327 99.1919C76.4832 99.9416 75.9945 100.994 75.7273 102.981C75.4522 105.027 75.4479 107.738 75.4479 111.626V114.334C75.4479 118.222 75.4522 120.933 75.7273 122.979C75.9945 124.966 76.4832 126.018 77.2327 126.768C77.9823 127.518 79.0347 128.006 81.022 128.274C83.0677 128.549 85.7791 128.553 89.6667 128.553H111.333C115.221 128.553 117.932 128.549 119.978 128.274C121.965 128.006 123.018 127.518 123.767 126.768C124.517 126.018 125.006 124.966 125.273 122.979C125.548 120.933 125.552 118.222 125.552 114.334V111.626C125.552 107.738 125.548 105.027 125.273 102.981C125.006 100.994 124.517 99.9416 123.767 99.1919C123.108 98.5327 122.219 98.0798 120.684 97.7979C119.091 97.5052 116.992 97.4283 114.03 97.4118C112.909 97.4056 112.004 96.4911 112.01 95.3693C112.017 94.2475 112.931 93.3432 114.053 93.3494C116.982 93.3657 119.423 93.4358 121.418 93.8022C123.471 94.1793 125.218 94.8977 126.64 96.3193C128.27 97.9495 128.971 100.002 129.299 102.44C129.615 104.788 129.615 107.774 129.615 111.477V114.483C129.615 118.187 129.615 121.172 129.299 123.52C128.971 125.958 128.27 128.01 126.64 129.641C125.01 131.271 122.957 131.972 120.519 132.3C118.171 132.616 115.186 132.615 111.482 132.615H89.5181C85.8142 132.615 82.8287 132.616 80.4807 132.3C78.0429 131.972 75.9903 131.271 74.3601 129.641C72.7299 128.01 72.0288 125.958 71.701 123.52C71.3853 121.172 71.3854 118.187 71.3854 114.483V111.477C71.3854 107.773 71.3853 104.788 71.701 102.44C72.0288 100.002 72.7299 97.9495 74.3601 96.3193C75.7818 94.8977 77.5289 94.1793 79.5818 93.8022C81.5766 93.4358 84.0179 93.3657 86.947 93.3494Z" fill="#737589" fill-opacity="0.3" stroke="black" stroke-width="0.008"/>
</svg>
