<svg width="200" height="171" viewBox="0 0 200 171" fill="none" xmlns="http://www.w3.org/2000/svg">
<rect x="0.75" y="0.75" width="198.5" height="169.5" rx="29.25" fill="white" stroke="#E5C5BF" stroke-width="1.5"/>
<path d="M28.5774 16.838C27.3894 17.21 26.7954 18.044 26.7954 19.34C26.7954 20.636 27.3894 21.47 28.5774 21.842C28.6734 21.866 28.7214 21.83 28.7214 21.734V16.946C28.7214 16.85 28.6734 16.814 28.5774 16.838ZM31.7814 16.946V21.734C31.7814 21.83 31.8294 21.866 31.9254 21.842C33.1134 21.47 33.7074 20.636 33.7074 19.34C33.7074 18.044 33.1134 17.21 31.9254 16.838C31.8294 16.814 31.7814 16.85 31.7814 16.946ZM28.5774 24.218C27.1134 23.978 25.9734 23.432 25.1574 22.58C24.3534 21.728 23.9514 20.648 23.9514 19.34C23.9514 18.032 24.3534 16.952 25.1574 16.1C25.9734 15.248 27.1134 14.702 28.5774 14.462C28.6734 14.438 28.7214 14.378 28.7214 14.282V13.886C28.7214 13.61 28.8234 13.37 29.0274 13.166C29.2314 12.962 29.4714 12.86 29.7474 12.86H30.7554C31.0314 12.86 31.2714 12.962 31.4754 13.166C31.6794 13.37 31.7814 13.61 31.7814 13.886V14.282C31.7814 14.378 31.8294 14.438 31.9254 14.462C33.3894 14.702 34.5234 15.248 35.3274 16.1C36.1434 16.952 36.5514 18.032 36.5514 19.34C36.5514 20.648 36.1434 21.728 35.3274 22.58C34.5234 23.432 33.3894 23.978 31.9254 24.218C31.8294 24.242 31.7814 24.302 31.7814 24.398V24.974C31.7814 25.25 31.6794 25.49 31.4754 25.694C31.2714 25.898 31.0314 26 30.7554 26H29.7474C29.4714 26 29.2314 25.898 29.0274 25.694C28.8234 25.49 28.7214 25.25 28.7214 24.974V24.398C28.7214 24.302 28.6734 24.242 28.5774 24.218ZM43.6246 19.16C43.3366 18.716 42.8926 18.494 42.2926 18.494C41.6926 18.494 41.2426 18.716 40.9426 19.16C40.6546 19.604 40.5106 20.324 40.5106 21.32C40.5106 22.316 40.6546 23.036 40.9426 23.48C41.2426 23.924 41.6926 24.146 42.2926 24.146C42.8926 24.146 43.3366 23.924 43.6246 23.48C43.9246 23.036 44.0746 22.316 44.0746 21.32C44.0746 20.324 43.9246 19.604 43.6246 19.16ZM45.7666 24.902C44.9386 25.754 43.7806 26.18 42.2926 26.18C40.8046 26.18 39.6466 25.754 38.8186 24.902C37.9906 24.05 37.5766 22.856 37.5766 21.32C37.5766 19.784 37.9906 18.59 38.8186 17.738C39.6466 16.886 40.8046 16.46 42.2926 16.46C43.7806 16.46 44.9386 16.886 45.7666 17.738C46.5946 18.59 47.0086 19.784 47.0086 21.32C47.0086 22.856 46.5946 24.05 45.7666 24.902ZM49.7794 26C49.5034 26 49.2634 25.898 49.0594 25.694C48.8554 25.49 48.7534 25.25 48.7534 24.974V17.666C48.7534 17.39 48.8554 17.15 49.0594 16.946C49.2634 16.742 49.5034 16.64 49.7794 16.64H50.6974C50.9734 16.64 51.2074 16.742 51.3994 16.946C51.6034 17.15 51.7054 17.39 51.7054 17.666V19.97C51.7054 20.066 51.7594 20.114 51.8674 20.114H54.1354C54.2434 20.114 54.2974 20.066 54.2974 19.97V17.666C54.2974 17.39 54.3934 17.15 54.5854 16.946C54.7894 16.742 55.0294 16.64 55.3054 16.64H56.2234C56.4994 16.64 56.7394 16.742 56.9434 16.946C57.1474 17.15 57.2494 17.39 57.2494 17.666V24.974C57.2494 25.25 57.1474 25.49 56.9434 25.694C56.7394 25.898 56.4994 26 56.2234 26H55.3054C55.0294 26 54.7894 25.898 54.5854 25.694C54.3934 25.49 54.2974 25.25 54.2974 24.974V22.31C54.2974 22.202 54.2434 22.148 54.1354 22.148H51.8674C51.7594 22.148 51.7054 22.202 51.7054 22.31V24.974C51.7054 25.25 51.6034 25.49 51.3994 25.694C51.2074 25.898 50.9734 26 50.6974 26H49.7794ZM62.9287 23.84C62.9047 23.864 62.8987 23.894 62.9107 23.93C62.9347 23.954 62.9647 23.966 63.0007 23.966H65.6827C65.7787 23.966 65.8267 23.912 65.8267 23.804V18.836C65.8267 18.728 65.7787 18.674 65.6827 18.674H64.0087C63.9007 18.674 63.8467 18.734 63.8467 18.854C63.8467 20.546 63.7987 21.644 63.7027 22.148C63.6187 22.64 63.3607 23.204 62.9287 23.84ZM60.0127 28.16C59.7367 28.16 59.4967 28.058 59.2927 27.854C59.0887 27.65 58.9867 27.41 58.9867 27.134V24.614C58.9867 24.434 59.0527 24.284 59.1847 24.164C59.3167 24.032 59.4727 23.966 59.6527 23.966C59.7127 23.966 59.7607 23.942 59.7967 23.894C60.3967 23.174 60.7627 22.544 60.8947 22.004C61.0267 21.464 61.0927 20.354 61.0927 18.674V17.666C61.0927 17.39 61.1947 17.15 61.3987 16.946C61.6027 16.742 61.8427 16.64 62.1187 16.64H67.6267C67.9027 16.64 68.1427 16.742 68.3467 16.946C68.5507 17.15 68.6527 17.39 68.6527 17.666V23.804C68.6527 23.912 68.7067 23.966 68.8147 23.966H68.8327C69.1087 23.966 69.3487 24.068 69.5527 24.272C69.7567 24.464 69.8587 24.698 69.8587 24.974V27.134C69.8587 27.41 69.7567 27.65 69.5527 27.854C69.3487 28.058 69.1087 28.16 68.8327 28.16H68.0587C67.7827 28.16 67.5427 28.058 67.3387 27.854C67.1347 27.65 67.0327 27.41 67.0327 27.134V26.162C67.0327 26.054 66.9787 26 66.8707 26H61.9747C61.8667 26 61.8127 26.054 61.8127 26.162V27.134C61.8127 27.41 61.7107 27.65 61.5067 27.854C61.3027 28.058 61.0627 28.16 60.7867 28.16H60.0127ZM82.2613 19.16C81.9733 18.716 81.5293 18.494 80.9293 18.494C80.3293 18.494 79.8793 18.716 79.5793 19.16C79.2913 19.604 79.1473 20.324 79.1473 21.32C79.1473 22.316 79.2913 23.036 79.5793 23.48C79.8793 23.924 80.3293 24.146 80.9293 24.146C81.5293 24.146 81.9733 23.924 82.2613 23.48C82.5613 23.036 82.7113 22.316 82.7113 21.32C82.7113 20.324 82.5613 19.604 82.2613 19.16ZM84.4033 24.902C83.5753 25.754 82.4173 26.18 80.9293 26.18C79.4413 26.18 78.2833 25.754 77.4553 24.902C76.6273 24.05 76.2133 22.856 76.2133 21.32C76.2133 19.784 76.6273 18.59 77.4553 17.738C78.2833 16.886 79.4413 16.46 80.9293 16.46C82.4173 16.46 83.5753 16.886 84.4033 17.738C85.2313 18.59 85.6453 19.784 85.6453 21.32C85.6453 22.856 85.2313 24.05 84.4033 24.902ZM88.4161 26C88.1401 26 87.9001 25.898 87.6961 25.694C87.4921 25.49 87.3901 25.25 87.3901 24.974V17.666C87.3901 17.39 87.4921 17.15 87.6961 16.946C87.9001 16.742 88.1401 16.64 88.4161 16.64H89.3161C89.5921 16.64 89.8261 16.742 90.0181 16.946C90.2221 17.15 90.3241 17.39 90.3241 17.666V23.858C90.3241 23.954 90.3781 24.002 90.4861 24.002H92.8081C92.9161 24.002 92.9701 23.954 92.9701 23.858V17.666C92.9701 17.39 93.0721 17.15 93.2761 16.946C93.4801 16.742 93.7201 16.64 93.9961 16.64H94.8961C95.1721 16.64 95.4061 16.742 95.5981 16.946C95.8021 17.15 95.9041 17.39 95.9041 17.666V23.858C95.9041 23.954 95.9581 24.002 96.0661 24.002H96.7501C97.0261 24.002 97.2661 24.104 97.4701 24.308C97.6741 24.512 97.7761 24.752 97.7761 25.028V27.134C97.7761 27.41 97.6741 27.65 97.4701 27.854C97.2661 28.058 97.0261 28.16 96.7501 28.16H96.2101C95.9341 28.16 95.6941 28.058 95.4901 27.854C95.2861 27.65 95.1841 27.41 95.1841 27.134V26.162C95.1841 26.054 95.1361 26 95.0401 26H88.4161ZM103.445 18.422C102.905 18.422 102.497 18.566 102.221 18.854C101.945 19.13 101.771 19.61 101.699 20.294C101.699 20.39 101.741 20.438 101.825 20.438H104.867C104.975 20.438 105.029 20.384 105.029 20.276C104.981 19.04 104.453 18.422 103.445 18.422ZM103.895 26.18C102.263 26.18 101.003 25.766 100.115 24.938C99.2392 24.11 98.8012 22.904 98.8012 21.32C98.8012 19.748 99.1912 18.548 99.9712 17.72C100.763 16.88 101.903 16.46 103.391 16.46C106.247 16.46 107.699 18.02 107.747 21.14C107.747 21.428 107.633 21.674 107.405 21.878C107.189 22.07 106.937 22.166 106.649 22.166H101.843C101.723 22.166 101.675 22.22 101.699 22.328C101.795 22.988 102.047 23.462 102.455 23.75C102.875 24.026 103.499 24.164 104.327 24.164C104.867 24.164 105.449 24.086 106.073 23.93C106.325 23.87 106.547 23.918 106.739 24.074C106.943 24.23 107.045 24.434 107.045 24.686V24.722C107.045 25.022 106.949 25.298 106.757 25.55C106.577 25.79 106.343 25.934 106.055 25.982C105.359 26.114 104.639 26.18 103.895 26.18ZM110.617 26C110.341 26 110.101 25.898 109.897 25.694C109.693 25.49 109.591 25.25 109.591 24.974V17.666C109.591 17.39 109.693 17.15 109.897 16.946C110.101 16.742 110.341 16.64 110.617 16.64H111.535C111.811 16.64 112.045 16.742 112.237 16.946C112.441 17.15 112.543 17.39 112.543 17.666V19.97C112.543 20.066 112.597 20.114 112.705 20.114H114.973C115.081 20.114 115.135 20.066 115.135 19.97V17.666C115.135 17.39 115.231 17.15 115.423 16.946C115.627 16.742 115.867 16.64 116.143 16.64H117.061C117.337 16.64 117.577 16.742 117.781 16.946C117.985 17.15 118.087 17.39 118.087 17.666V24.974C118.087 25.25 117.985 25.49 117.781 25.694C117.577 25.898 117.337 26 117.061 26H116.143C115.867 26 115.627 25.898 115.423 25.694C115.231 25.49 115.135 25.25 115.135 24.974V22.31C115.135 22.202 115.081 22.148 114.973 22.148H112.705C112.597 22.148 112.543 22.202 112.543 22.31V24.974C112.543 25.25 112.441 25.49 112.237 25.694C112.045 25.898 111.811 26 111.535 26H110.617ZM125.873 19.16C125.585 18.716 125.141 18.494 124.541 18.494C123.941 18.494 123.491 18.716 123.191 19.16C122.903 19.604 122.759 20.324 122.759 21.32C122.759 22.316 122.903 23.036 123.191 23.48C123.491 23.924 123.941 24.146 124.541 24.146C125.141 24.146 125.585 23.924 125.873 23.48C126.173 23.036 126.323 22.316 126.323 21.32C126.323 20.324 126.173 19.604 125.873 19.16ZM128.015 24.902C127.187 25.754 126.029 26.18 124.541 26.18C123.053 26.18 121.895 25.754 121.067 24.902C120.239 24.05 119.825 22.856 119.825 21.32C119.825 19.784 120.239 18.59 121.067 17.738C121.895 16.886 123.053 16.46 124.541 16.46C126.029 16.46 127.187 16.886 128.015 17.738C128.843 18.59 129.257 19.784 129.257 21.32C129.257 22.856 128.843 24.05 128.015 24.902ZM134.493 23.534C133.137 23.534 132.183 23.294 131.631 22.814C131.091 22.334 130.821 21.506 130.821 20.33V17.666C130.821 17.39 130.923 17.15 131.127 16.946C131.331 16.742 131.571 16.64 131.847 16.64H132.639C132.915 16.64 133.155 16.742 133.359 16.946C133.563 17.15 133.665 17.39 133.665 17.666V19.754C133.665 20.45 133.749 20.894 133.917 21.086C134.085 21.278 134.451 21.374 135.015 21.374C135.507 21.374 135.969 21.278 136.401 21.086C136.497 21.05 136.545 20.978 136.545 20.87V17.666C136.545 17.39 136.647 17.15 136.851 16.946C137.055 16.742 137.295 16.64 137.571 16.64H138.399C138.675 16.64 138.915 16.742 139.119 16.946C139.323 17.15 139.425 17.39 139.425 17.666V24.974C139.425 25.25 139.323 25.49 139.119 25.694C138.915 25.898 138.675 26 138.399 26H137.571C137.295 26 137.055 25.898 136.851 25.694C136.647 25.49 136.545 25.25 136.545 24.974V23.282C136.545 23.174 136.497 23.144 136.401 23.192C135.801 23.42 135.165 23.534 134.493 23.534ZM142.82 26C142.544 26 142.304 25.898 142.1 25.694C141.896 25.49 141.794 25.25 141.794 24.974V17.666C141.794 17.39 141.896 17.15 142.1 16.946C142.304 16.742 142.544 16.64 142.82 16.64H143.738C144.014 16.64 144.248 16.742 144.44 16.946C144.644 17.15 144.746 17.39 144.746 17.666V19.97C144.746 20.066 144.8 20.114 144.908 20.114H147.176C147.284 20.114 147.338 20.066 147.338 19.97V17.666C147.338 17.39 147.434 17.15 147.626 16.946C147.83 16.742 148.07 16.64 148.346 16.64H149.264C149.54 16.64 149.78 16.742 149.984 16.946C150.188 17.15 150.29 17.39 150.29 17.666V24.974C150.29 25.25 150.188 25.49 149.984 25.694C149.78 25.898 149.54 26 149.264 26H148.346C148.07 26 147.83 25.898 147.626 25.694C147.434 25.49 147.338 25.25 147.338 24.974V22.31C147.338 22.202 147.284 22.148 147.176 22.148H144.908C144.8 22.148 144.746 22.202 144.746 22.31V24.974C144.746 25.25 144.644 25.49 144.44 25.694C144.248 25.898 144.014 26 143.738 26H142.82ZM162.594 26C162.318 26 162.078 25.898 161.874 25.694C161.67 25.49 161.568 25.25 161.568 24.974V17.666C161.568 17.39 161.67 17.15 161.874 16.946C162.078 16.742 162.318 16.64 162.594 16.64H163.476C163.752 16.64 163.986 16.742 164.178 16.946C164.382 17.15 164.484 17.39 164.484 17.666V24.974C164.484 25.25 164.382 25.49 164.178 25.694C163.986 25.898 163.752 26 163.476 26H162.594ZM156.276 24.146C156.876 24.146 157.314 24.014 157.59 23.75C157.866 23.486 158.004 23.078 158.004 22.526C158.004 22.058 157.854 21.698 157.554 21.446C157.266 21.182 156.834 21.05 156.258 21.05C156.114 21.05 155.922 21.074 155.682 21.122C155.586 21.146 155.538 21.206 155.538 21.302V23.876C155.538 23.996 155.58 24.062 155.664 24.074C155.844 24.122 156.048 24.146 156.276 24.146ZM156.708 19.016C157.992 19.016 158.988 19.334 159.696 19.97C160.404 20.594 160.758 21.446 160.758 22.526C160.758 23.762 160.374 24.68 159.606 25.28C158.838 25.88 157.632 26.18 155.988 26.18C155.136 26.18 154.356 26.138 153.648 26.054C153.36 26.018 153.12 25.892 152.928 25.676C152.748 25.448 152.658 25.184 152.658 24.884V17.666C152.658 17.39 152.76 17.15 152.964 16.946C153.168 16.742 153.408 16.64 153.684 16.64H154.512C154.788 16.64 155.028 16.742 155.232 16.946C155.436 17.15 155.538 17.39 155.538 17.666V18.962C155.538 18.998 155.55 19.034 155.574 19.07C155.598 19.094 155.628 19.1 155.664 19.088C155.952 19.04 156.3 19.016 156.708 19.016ZM167.167 26C166.939 26 166.765 25.904 166.645 25.712C166.537 25.52 166.543 25.322 166.663 25.118L168.823 21.356C168.871 21.272 168.871 21.188 168.823 21.104L166.753 17.522C166.633 17.318 166.627 17.12 166.735 16.928C166.855 16.736 167.029 16.64 167.257 16.64H168.337C168.637 16.64 168.919 16.73 169.183 16.91C169.447 17.078 169.645 17.3 169.777 17.576L170.785 19.754C170.785 19.766 170.791 19.772 170.803 19.772C170.815 19.772 170.821 19.766 170.821 19.754L171.829 17.576C171.949 17.3 172.141 17.078 172.405 16.91C172.669 16.73 172.957 16.64 173.269 16.64H174.277C174.493 16.64 174.655 16.736 174.763 16.928C174.883 17.12 174.889 17.318 174.781 17.522L172.711 21.104C172.651 21.188 172.651 21.272 172.711 21.356L174.871 25.118C174.979 25.322 174.973 25.52 174.853 25.712C174.745 25.904 174.583 26 174.367 26H173.287C172.975 26 172.681 25.916 172.405 25.748C172.141 25.58 171.949 25.358 171.829 25.082L170.749 22.742C170.749 22.73 170.743 22.724 170.731 22.724C170.719 22.724 170.713 22.73 170.713 22.742L169.633 25.082C169.501 25.358 169.297 25.58 169.021 25.748C168.757 25.916 168.475 26 168.175 26H167.167ZM69.0046 53.18C67.4566 53.18 66.2686 52.772 65.4406 51.956C64.6126 51.14 64.1986 49.928 64.1986 48.32C64.1986 46.748 64.5946 45.548 65.3866 44.72C66.1906 43.88 67.3366 43.46 68.8246 43.46C69.3166 43.46 69.9706 43.514 70.7866 43.622C71.0866 43.67 71.3266 43.808 71.5066 44.036C71.6986 44.252 71.7946 44.51 71.7946 44.81V44.99C71.7946 45.242 71.6926 45.446 71.4886 45.602C71.2846 45.758 71.0566 45.812 70.8046 45.764C70.3126 45.68 69.8086 45.638 69.2926 45.638C68.6086 45.638 68.0986 45.854 67.7626 46.286C67.4266 46.706 67.2586 47.384 67.2586 48.32C67.2586 49.268 67.4386 49.952 67.7986 50.372C68.1586 50.792 68.7166 51.002 69.4726 51.002C70.0246 51.002 70.5226 50.954 70.9666 50.858C71.2186 50.798 71.4406 50.846 71.6326 51.002C71.8366 51.158 71.9386 51.362 71.9386 51.614V51.794C71.9386 52.094 71.8426 52.364 71.6506 52.604C71.4586 52.832 71.2186 52.97 70.9306 53.018C70.2706 53.126 69.6286 53.18 69.0046 53.18ZM77.0769 47.204V49.436C77.0769 49.832 77.2569 50.198 77.6169 50.534C77.9889 50.858 78.4089 51.02 78.8769 51.02C79.4289 51.02 79.8669 50.798 80.1909 50.354C80.5149 49.898 80.6769 49.22 80.6769 48.32C80.6769 46.52 80.0769 45.62 78.8769 45.62C78.4089 45.62 77.9889 45.788 77.6169 46.124C77.2569 46.448 77.0769 46.808 77.0769 47.204ZM75.2589 56.96C74.9829 56.96 74.7429 56.858 74.5389 56.654C74.3349 56.45 74.2329 56.21 74.2329 55.934V44.666C74.2329 44.39 74.3349 44.15 74.5389 43.946C74.7429 43.742 74.9829 43.64 75.2589 43.64H75.9789C76.2669 43.64 76.5129 43.742 76.7169 43.946C76.9209 44.138 77.0289 44.378 77.0409 44.666V44.81C77.0409 44.822 77.0469 44.828 77.0589 44.828L77.0949 44.792C77.8629 43.904 78.7869 43.46 79.8669 43.46C80.9829 43.46 81.8709 43.88 82.5309 44.72C83.2029 45.56 83.5389 46.76 83.5389 48.32C83.5389 49.832 83.1909 51.02 82.4949 51.884C81.8109 52.748 80.9349 53.18 79.8669 53.18C78.8709 53.18 77.9829 52.814 77.2029 52.082C77.1909 52.07 77.1789 52.064 77.1669 52.064C77.1549 52.064 77.1489 52.07 77.1489 52.082V55.934C77.1489 56.21 77.0469 56.45 76.8429 56.654C76.6389 56.858 76.3989 56.96 76.1229 56.96H75.2589ZM89.3915 45.422C88.8515 45.422 88.4435 45.566 88.1675 45.854C87.8915 46.13 87.7175 46.61 87.6455 47.294C87.6455 47.39 87.6875 47.438 87.7715 47.438H90.8135C90.9215 47.438 90.9755 47.384 90.9755 47.276C90.9275 46.04 90.3995 45.422 89.3915 45.422ZM89.8415 53.18C88.2095 53.18 86.9495 52.766 86.0615 51.938C85.1855 51.11 84.7475 49.904 84.7475 48.32C84.7475 46.748 85.1375 45.548 85.9175 44.72C86.7095 43.88 87.8495 43.46 89.3375 43.46C92.1935 43.46 93.6455 45.02 93.6935 48.14C93.6935 48.428 93.5795 48.674 93.3515 48.878C93.1355 49.07 92.8835 49.166 92.5955 49.166H87.7895C87.6695 49.166 87.6215 49.22 87.6455 49.328C87.7415 49.988 87.9935 50.462 88.4015 50.75C88.8215 51.026 89.4455 51.164 90.2735 51.164C90.8135 51.164 91.3955 51.086 92.0195 50.93C92.2715 50.87 92.4935 50.918 92.6855 51.074C92.8895 51.23 92.9915 51.434 92.9915 51.686V51.722C92.9915 52.022 92.8955 52.298 92.7035 52.55C92.5235 52.79 92.2895 52.934 92.0015 52.982C91.3055 53.114 90.5855 53.18 89.8415 53.18ZM98.8496 50.84C98.8256 50.864 98.8196 50.894 98.8316 50.93C98.8556 50.954 98.8856 50.966 98.9216 50.966H101.604C101.7 50.966 101.748 50.912 101.748 50.804V45.836C101.748 45.728 101.7 45.674 101.604 45.674H99.9296C99.8216 45.674 99.7676 45.734 99.7676 45.854C99.7676 47.546 99.7196 48.644 99.6236 49.148C99.5396 49.64 99.2816 50.204 98.8496 50.84ZM95.9336 55.16C95.6576 55.16 95.4176 55.058 95.2136 54.854C95.0096 54.65 94.9076 54.41 94.9076 54.134V51.614C94.9076 51.434 94.9736 51.284 95.1056 51.164C95.2376 51.032 95.3936 50.966 95.5736 50.966C95.6336 50.966 95.6816 50.942 95.7176 50.894C96.3176 50.174 96.6836 49.544 96.8156 49.004C96.9476 48.464 97.0136 47.354 97.0136 45.674V44.666C97.0136 44.39 97.1156 44.15 97.3196 43.946C97.5236 43.742 97.7636 43.64 98.0396 43.64H103.548C103.824 43.64 104.064 43.742 104.268 43.946C104.472 44.15 104.574 44.39 104.574 44.666V50.804C104.574 50.912 104.628 50.966 104.736 50.966H104.754C105.03 50.966 105.27 51.068 105.474 51.272C105.678 51.464 105.78 51.698 105.78 51.974V54.134C105.78 54.41 105.678 54.65 105.474 54.854C105.27 55.058 105.03 55.16 104.754 55.16H103.98C103.704 55.16 103.464 55.058 103.26 54.854C103.056 54.65 102.954 54.41 102.954 54.134V53.162C102.954 53.054 102.9 53 102.792 53H97.8956C97.7876 53 97.7336 53.054 97.7336 53.162V54.134C97.7336 54.41 97.6316 54.65 97.4276 54.854C97.2236 55.058 96.9836 55.16 96.7076 55.16H95.9336ZM111.702 53.18C110.154 53.18 108.966 52.772 108.138 51.956C107.31 51.14 106.896 49.928 106.896 48.32C106.896 46.748 107.292 45.548 108.084 44.72C108.888 43.88 110.034 43.46 111.522 43.46C112.014 43.46 112.668 43.514 113.484 43.622C113.784 43.67 114.024 43.808 114.204 44.036C114.396 44.252 114.492 44.51 114.492 44.81V44.99C114.492 45.242 114.39 45.446 114.186 45.602C113.982 45.758 113.754 45.812 113.502 45.764C113.01 45.68 112.506 45.638 111.99 45.638C111.306 45.638 110.796 45.854 110.46 46.286C110.124 46.706 109.956 47.384 109.956 48.32C109.956 49.268 110.136 49.952 110.496 50.372C110.856 50.792 111.414 51.002 112.17 51.002C112.722 51.002 113.22 50.954 113.664 50.858C113.916 50.798 114.138 50.846 114.33 51.002C114.534 51.158 114.636 51.362 114.636 51.614V51.794C114.636 52.094 114.54 52.364 114.348 52.604C114.156 52.832 113.916 52.97 113.628 53.018C112.968 53.126 112.326 53.18 111.702 53.18ZM117.416 45.836C117.14 45.836 116.9 45.734 116.696 45.53C116.492 45.326 116.39 45.086 116.39 44.81V44.666C116.39 44.39 116.492 44.15 116.696 43.946C116.9 43.742 117.14 43.64 117.416 43.64H123.932C124.208 43.64 124.448 43.742 124.652 43.946C124.856 44.15 124.958 44.39 124.958 44.666V44.81C124.958 45.086 124.856 45.326 124.652 45.53C124.448 45.734 124.208 45.836 123.932 45.836H122.33C122.234 45.836 122.186 45.89 122.186 45.998V51.974C122.186 52.25 122.084 52.49 121.88 52.694C121.676 52.898 121.436 53 121.16 53H120.188C119.912 53 119.672 52.898 119.468 52.694C119.264 52.49 119.162 52.25 119.162 51.974V45.998C119.162 45.89 119.114 45.836 119.018 45.836H117.416ZM129.69 49.166V51.092C129.69 51.212 129.744 51.272 129.852 51.272C129.936 51.284 130.062 51.29 130.23 51.29C131.37 51.29 131.94 50.888 131.94 50.084C131.94 49.364 131.376 49.004 130.248 49.004H129.852C129.744 49.004 129.69 49.058 129.69 49.166ZM129.69 45.548V47.114C129.69 47.21 129.744 47.258 129.852 47.258H130.176C130.632 47.258 130.992 47.168 131.256 46.988C131.52 46.808 131.652 46.562 131.652 46.25C131.652 45.65 131.172 45.35 130.212 45.35C130.044 45.35 129.924 45.356 129.852 45.368C129.744 45.368 129.69 45.428 129.69 45.548ZM127.818 53.036C127.53 53.012 127.284 52.892 127.08 52.676C126.888 52.46 126.792 52.208 126.792 51.92V44.72C126.792 44.432 126.888 44.18 127.08 43.964C127.284 43.748 127.53 43.628 127.818 43.604C128.574 43.544 129.288 43.514 129.96 43.514C132.888 43.514 134.352 44.312 134.352 45.908C134.352 46.448 134.154 46.91 133.758 47.294C133.362 47.666 132.822 47.906 132.138 48.014V48.032C132.138 48.044 132.144 48.05 132.156 48.05C132.948 48.146 133.572 48.404 134.028 48.824C134.484 49.232 134.712 49.724 134.712 50.3C134.712 51.236 134.346 51.944 133.614 52.424C132.894 52.892 131.724 53.126 130.104 53.126C129.396 53.126 128.634 53.096 127.818 53.036Z" fill="#737589"/>
<line x1="2" y1="60" x2="198" y2="60" stroke="#F8EBE9" stroke-width="2"/>
<path d="M56.728 155.802C56.44 155.73 56.2 155.568 56.008 155.316C55.828 155.064 55.738 154.782 55.738 154.47V153.858C55.738 153.618 55.834 153.432 56.026 153.3C56.23 153.156 56.452 153.12 56.692 153.192C57.76 153.54 58.72 153.714 59.572 153.714C60.292 153.714 60.838 153.57 61.21 153.282C61.594 152.994 61.786 152.592 61.786 152.076C61.786 151.536 61.552 151.14 61.084 150.888C60.616 150.624 59.758 150.486 58.51 150.474C58.234 150.474 57.994 150.378 57.79 150.186C57.598 149.982 57.502 149.742 57.502 149.466V149.106C57.502 148.83 57.598 148.596 57.79 148.404C57.994 148.2 58.234 148.092 58.51 148.08C59.626 148.068 60.424 147.924 60.904 147.648C61.396 147.36 61.642 146.946 61.642 146.406C61.642 145.566 60.928 145.146 59.5 145.146C58.684 145.146 57.784 145.314 56.8 145.65C56.572 145.734 56.356 145.71 56.152 145.578C55.96 145.434 55.864 145.242 55.864 145.002V144.39C55.864 144.078 55.954 143.802 56.134 143.562C56.326 143.31 56.566 143.148 56.854 143.076C57.874 142.812 58.906 142.68 59.95 142.68C61.39 142.68 62.518 142.974 63.334 143.562C64.162 144.15 64.576 144.918 64.576 145.866C64.576 146.73 64.372 147.414 63.964 147.918C63.568 148.41 62.908 148.794 61.984 149.07C61.972 149.07 61.966 149.082 61.966 149.106C61.966 149.118 61.972 149.124 61.984 149.124C62.896 149.244 63.586 149.574 64.054 150.114C64.534 150.642 64.774 151.344 64.774 152.22C64.774 153.456 64.33 154.428 63.442 155.136C62.554 155.832 61.312 156.18 59.716 156.18C58.684 156.18 57.688 156.054 56.728 155.802ZM70.9339 151.716C69.4699 151.716 68.7379 152.166 68.7379 153.066C68.7379 153.39 68.8339 153.648 69.0259 153.84C69.2179 154.02 69.4759 154.11 69.7999 154.11C70.3759 154.11 70.8439 153.93 71.2039 153.57C71.5639 153.198 71.7439 152.706 71.7439 152.094V151.878C71.7439 151.77 71.6899 151.716 71.5819 151.716H70.9339ZM68.9179 156.18C68.0899 156.18 67.4059 155.916 66.8659 155.388C66.3379 154.848 66.0739 154.152 66.0739 153.3C66.0739 151.116 67.6939 150.024 70.9339 150.024H71.5819C71.6899 150.024 71.7439 149.976 71.7439 149.88V149.79C71.7439 149.334 71.6239 149.004 71.3839 148.8C71.1559 148.596 70.7659 148.494 70.2139 148.494C69.4819 148.494 68.6059 148.608 67.5859 148.836C67.3339 148.884 67.1059 148.83 66.9019 148.674C66.7099 148.518 66.6139 148.314 66.6139 148.062V148.026C66.6139 147.726 66.7039 147.456 66.8839 147.216C67.0759 146.964 67.3159 146.814 67.6039 146.766C68.6599 146.562 69.5719 146.46 70.3399 146.46C71.9119 146.46 73.0219 146.742 73.6699 147.306C74.3299 147.87 74.6599 148.806 74.6599 150.114V154.974C74.6599 155.25 74.5579 155.49 74.3539 155.694C74.1499 155.898 73.9099 156 73.6339 156H72.9679C72.6799 156 72.4339 155.904 72.2299 155.712C72.0259 155.508 71.9179 155.262 71.9059 154.974V154.776C71.9059 154.764 71.8999 154.758 71.8879 154.758C71.8639 154.758 71.8519 154.764 71.8519 154.776C71.0959 155.712 70.1179 156.18 68.9179 156.18ZM77.9738 156C77.6978 156 77.4578 155.898 77.2538 155.694C77.0498 155.49 76.9478 155.25 76.9478 154.974V147.666C76.9478 147.39 77.0498 147.15 77.2538 146.946C77.4578 146.742 77.6978 146.64 77.9738 146.64H83.6798C83.9558 146.64 84.1898 146.742 84.3818 146.946C84.5858 147.15 84.6878 147.39 84.6878 147.666V147.756C84.6878 148.032 84.5858 148.272 84.3818 148.476C84.1898 148.668 83.9558 148.764 83.6798 148.764H80.1338C80.0378 148.764 79.9898 148.818 79.9898 148.926V154.974C79.9898 155.25 79.8878 155.49 79.6838 155.694C79.4798 155.898 79.2398 156 78.9638 156H77.9738ZM89.284 150.204V152.436C89.284 152.832 89.464 153.198 89.824 153.534C90.196 153.858 90.616 154.02 91.084 154.02C91.636 154.02 92.074 153.798 92.398 153.354C92.722 152.898 92.884 152.22 92.884 151.32C92.884 149.52 92.284 148.62 91.084 148.62C90.616 148.62 90.196 148.788 89.824 149.124C89.464 149.448 89.284 149.808 89.284 150.204ZM87.466 159.96C87.19 159.96 86.95 159.858 86.746 159.654C86.542 159.45 86.44 159.21 86.44 158.934V147.666C86.44 147.39 86.542 147.15 86.746 146.946C86.95 146.742 87.19 146.64 87.466 146.64H88.186C88.474 146.64 88.72 146.742 88.924 146.946C89.128 147.138 89.236 147.378 89.248 147.666V147.81C89.248 147.822 89.254 147.828 89.266 147.828L89.302 147.792C90.07 146.904 90.994 146.46 92.074 146.46C93.19 146.46 94.078 146.88 94.738 147.72C95.41 148.56 95.746 149.76 95.746 151.32C95.746 152.832 95.398 154.02 94.702 154.884C94.018 155.748 93.142 156.18 92.074 156.18C91.078 156.18 90.19 155.814 89.41 155.082C89.398 155.07 89.386 155.064 89.374 155.064C89.362 155.064 89.356 155.07 89.356 155.082V158.934C89.356 159.21 89.254 159.45 89.05 159.654C88.846 159.858 88.606 159.96 88.33 159.96H87.466ZM100.338 155.856L97.1345 147.594C97.0385 147.366 97.0565 147.15 97.1885 146.946C97.3325 146.742 97.5305 146.64 97.7825 146.64H98.9345C99.2225 146.64 99.4865 146.736 99.7265 146.928C99.9665 147.108 100.128 147.342 100.212 147.63L101.706 153.228C101.706 153.24 101.712 153.246 101.724 153.246C101.736 153.246 101.742 153.24 101.742 153.228L103.38 147.612C103.452 147.324 103.608 147.09 103.848 146.91C104.1 146.73 104.382 146.64 104.694 146.64H105.702C105.954 146.64 106.146 146.742 106.278 146.946C106.422 147.15 106.452 147.366 106.368 147.594L103.218 156.126C102.726 157.446 102.108 158.412 101.364 159.024C100.62 159.636 99.6185 159.996 98.3585 160.104C98.0825 160.128 97.8425 160.038 97.6385 159.834C97.4345 159.642 97.3325 159.402 97.3325 159.114V158.97C97.3325 158.694 97.4285 158.454 97.6205 158.25C97.8245 158.046 98.0705 157.926 98.3585 157.89C98.8985 157.806 99.3125 157.632 99.6005 157.368C99.9005 157.116 100.146 156.708 100.338 156.144C100.35 156.096 100.356 156.048 100.356 156C100.356 155.952 100.35 155.904 100.338 155.856ZM108.37 155.892C108.082 155.832 107.848 155.682 107.668 155.442C107.488 155.19 107.398 154.914 107.398 154.614V154.542C107.398 154.29 107.5 154.092 107.704 153.948C107.908 153.792 108.13 153.744 108.37 153.804C109.102 153.984 109.87 154.074 110.674 154.074C111.934 154.074 112.564 153.75 112.564 153.102C112.564 152.778 112.36 152.532 111.952 152.364C111.556 152.196 110.848 152.1 109.828 152.076C109.588 152.064 109.378 151.974 109.198 151.806C109.018 151.626 108.928 151.416 108.928 151.176C108.928 150.936 109.012 150.732 109.18 150.564C109.36 150.384 109.57 150.288 109.81 150.276C111.574 150.228 112.456 149.904 112.456 149.304C112.456 148.752 111.814 148.476 110.53 148.476C109.954 148.476 109.288 148.584 108.532 148.8C108.28 148.86 108.052 148.824 107.848 148.692C107.656 148.548 107.56 148.35 107.56 148.098V148.008C107.56 147.696 107.65 147.42 107.83 147.18C108.022 146.94 108.262 146.79 108.55 146.73C109.318 146.55 110.08 146.46 110.836 146.46C112.216 146.46 113.302 146.694 114.094 147.162C114.898 147.63 115.3 148.194 115.3 148.854C115.3 149.382 115.114 149.844 114.742 150.24C114.37 150.624 113.812 150.906 113.068 151.086C113.056 151.086 113.05 151.092 113.05 151.104C113.05 151.128 113.062 151.14 113.086 151.14C113.77 151.224 114.328 151.488 114.76 151.932C115.192 152.376 115.408 152.892 115.408 153.48C115.408 154.296 115.012 154.95 114.22 155.442C113.44 155.934 112.312 156.18 110.836 156.18C110.08 156.18 109.258 156.084 108.37 155.892ZM118.263 156C117.987 156 117.747 155.898 117.543 155.694C117.339 155.49 117.237 155.25 117.237 154.974V147.666C117.237 147.39 117.339 147.15 117.543 146.946C117.747 146.742 117.987 146.64 118.263 146.64H119.109C119.385 146.64 119.625 146.742 119.829 146.946C120.033 147.15 120.135 147.39 120.135 147.666V152.022H120.153H120.171L122.385 147.558C122.685 146.946 123.177 146.64 123.861 146.64H124.743C125.019 146.64 125.259 146.742 125.463 146.946C125.667 147.15 125.769 147.39 125.769 147.666V154.974C125.769 155.25 125.667 155.49 125.463 155.694C125.259 155.898 125.019 156 124.743 156H123.897C123.621 156 123.381 155.898 123.177 155.694C122.973 155.49 122.871 155.25 122.871 154.974V150.618H122.853H122.835L120.621 155.082C120.321 155.694 119.829 156 119.145 156H118.263ZM128.639 148.836C128.363 148.836 128.123 148.734 127.919 148.53C127.715 148.326 127.613 148.086 127.613 147.81V147.666C127.613 147.39 127.715 147.15 127.919 146.946C128.123 146.742 128.363 146.64 128.639 146.64H135.155C135.431 146.64 135.671 146.742 135.875 146.946C136.079 147.15 136.181 147.39 136.181 147.666V147.81C136.181 148.086 136.079 148.326 135.875 148.53C135.671 148.734 135.431 148.836 135.155 148.836H133.553C133.457 148.836 133.409 148.89 133.409 148.998V154.974C133.409 155.25 133.307 155.49 133.103 155.694C132.899 155.898 132.659 156 132.383 156H131.411C131.135 156 130.895 155.898 130.691 155.694C130.487 155.49 130.385 155.25 130.385 154.974V148.998C130.385 148.89 130.337 148.836 130.241 148.836H128.639ZM140.894 151.302V153.876C140.894 153.996 140.936 154.062 141.02 154.074C141.2 154.122 141.404 154.146 141.632 154.146C142.232 154.146 142.67 154.014 142.946 153.75C143.222 153.486 143.36 153.078 143.36 152.526C143.36 152.058 143.21 151.698 142.91 151.446C142.622 151.182 142.19 151.05 141.614 151.05C141.47 151.05 141.278 151.074 141.038 151.122C140.942 151.146 140.894 151.206 140.894 151.302ZM139.004 156.054C138.716 156.018 138.476 155.892 138.284 155.676C138.104 155.448 138.014 155.184 138.014 154.884V147.666C138.014 147.39 138.11 147.15 138.302 146.946C138.506 146.742 138.746 146.64 139.022 146.64H139.868C140.144 146.64 140.384 146.742 140.588 146.946C140.792 147.15 140.894 147.39 140.894 147.666V148.962C140.894 148.998 140.906 149.034 140.93 149.07C140.954 149.094 140.984 149.1 141.02 149.088C141.308 149.04 141.656 149.016 142.064 149.016C143.348 149.016 144.344 149.334 145.052 149.97C145.76 150.594 146.114 151.446 146.114 152.526C146.114 153.762 145.73 154.68 144.962 155.28C144.194 155.88 142.988 156.18 141.344 156.18C140.492 156.18 139.712 156.138 139.004 156.054Z" fill="#737589" fill-opacity="0.3"/>
<path fill-rule="evenodd" clip-rule="evenodd" d="M100.5 74.3857C101.093 74.3857 101.656 74.6448 102.042 75.0951L110.167 84.5742C110.897 85.426 110.799 86.7083 109.947 87.4384C109.095 88.1685 107.813 88.0698 107.083 87.2181L102.531 81.908V111.625C102.531 112.747 101.622 113.657 100.5 113.657C99.3782 113.657 98.4688 112.747 98.4688 111.625V81.908L93.9173 87.2181C93.1872 88.0698 91.9049 88.1685 91.0531 87.4384C90.2013 86.7083 90.1027 85.426 90.8328 84.5742L98.9579 75.0951C99.3436 74.6448 99.9072 74.3857 100.5 74.3857ZM86.9471 93.3494C88.0689 93.3432 88.9833 94.2475 88.9896 95.3693C88.9958 96.4911 88.0915 97.4056 86.9697 97.4118C84.0081 97.4283 81.9089 97.5052 80.3158 97.7979C78.7807 98.0798 77.8921 98.5327 77.2328 99.1919C76.4832 99.9416 75.9945 100.994 75.7273 102.981C75.4522 105.027 75.4479 107.738 75.4479 111.626V114.334C75.4479 118.222 75.4522 120.933 75.7273 122.979C75.9945 124.966 76.4832 126.018 77.2328 126.768C77.9823 127.518 79.0347 128.006 81.022 128.274C83.0678 128.549 85.7791 128.553 89.6667 128.553H111.333C115.221 128.553 117.932 128.549 119.978 128.274C121.965 128.006 123.018 127.518 123.767 126.768C124.517 126.018 125.006 124.966 125.273 122.979C125.548 120.933 125.552 118.222 125.552 114.334V111.626C125.552 107.738 125.548 105.027 125.273 102.981C125.006 100.994 124.517 99.9416 123.767 99.1919C123.108 98.5327 122.219 98.0798 120.684 97.7979C119.091 97.5052 116.992 97.4283 114.03 97.4118C112.909 97.4056 112.004 96.4911 112.01 95.3693C112.017 94.2475 112.931 93.3432 114.053 93.3494C116.982 93.3657 119.423 93.4358 121.418 93.8022C123.471 94.1793 125.218 94.8977 126.64 96.3193C128.27 97.9495 128.971 100.002 129.299 102.44C129.615 104.788 129.615 107.774 129.615 111.477V114.483C129.615 118.187 129.615 121.172 129.299 123.52C128.971 125.958 128.27 128.01 126.64 129.641C125.01 131.271 122.957 131.972 120.519 132.3C118.171 132.616 115.186 132.615 111.482 132.615H89.5181C85.8142 132.615 82.8287 132.616 80.4807 132.3C78.0429 131.972 75.9903 131.271 74.3601 129.641C72.7299 128.01 72.0288 125.958 71.701 123.52C71.3853 121.172 71.3854 118.187 71.3854 114.483V111.477C71.3854 107.773 71.3853 104.788 71.701 102.44C72.0288 100.002 72.7299 97.9495 74.3601 96.3193C75.7818 94.8977 77.5289 94.1793 79.5818 93.8022C81.5767 93.4358 84.0179 93.3657 86.9471 93.3494Z" fill="#737589" fill-opacity="0.3" stroke="black" stroke-width="0.008"/>
</svg>
