<svg width="200" height="171" viewBox="0 0 200 171" fill="none" xmlns="http://www.w3.org/2000/svg">
<rect x="0.75" y="0.75" width="198.5" height="169.5" rx="29.25" fill="white" stroke="#E5C5BF" stroke-width="1.5"/>
<path d="M28.1833 19.43C28.1833 16.61 27.1753 15.2 25.1593 15.2C23.1433 15.2 22.1353 16.61 22.1353 19.43C22.1353 22.25 23.1433 23.66 25.1593 23.66C27.1753 23.66 28.1833 22.25 28.1833 19.43ZM29.6593 24.398C28.5553 25.586 27.0553 26.18 25.1593 26.18C23.2633 26.18 21.7633 25.586 20.6593 24.398C19.5553 23.198 19.0033 21.542 19.0033 19.43C19.0033 17.318 19.5553 15.668 20.6593 14.48C21.7633 13.28 23.2633 12.68 25.1593 12.68C27.0553 12.68 28.5553 13.28 29.6593 14.48C30.7633 15.668 31.3153 17.318 31.3153 19.43C31.3153 21.542 30.7633 23.198 29.6593 24.398ZM35.853 21.41V21.59C35.853 22.346 36.015 22.94 36.339 23.372C36.675 23.804 37.119 24.02 37.671 24.02C38.259 24.02 38.715 23.81 39.039 23.39C39.363 22.958 39.525 22.328 39.525 21.5C39.525 20.708 39.357 20.09 39.021 19.646C38.685 19.202 38.247 18.98 37.707 18.98C37.143 18.98 36.693 19.19 36.357 19.61C36.021 20.03 35.853 20.63 35.853 21.41ZM37.761 26.18C36.225 26.18 35.043 25.742 34.215 24.866C33.387 23.99 32.973 22.73 32.973 21.086V17.666C32.973 15.962 33.447 14.708 34.395 13.904C35.343 13.088 36.855 12.68 38.931 12.68C39.579 12.68 40.149 12.656 40.641 12.608C40.917 12.584 41.151 12.668 41.343 12.86C41.547 13.04 41.649 13.262 41.649 13.526V13.58C41.649 13.868 41.553 14.126 41.361 14.354C41.181 14.57 40.947 14.69 40.659 14.714C39.987 14.762 39.453 14.786 39.057 14.786C37.785 14.786 36.921 14.984 36.465 15.38C36.009 15.776 35.781 16.526 35.781 17.63V18.134H35.799C35.823 18.134 35.835 18.128 35.835 18.116C36.519 17.252 37.431 16.82 38.571 16.82C39.627 16.82 40.503 17.24 41.199 18.08C41.907 18.92 42.261 20.06 42.261 21.5C42.261 22.976 41.865 24.128 41.073 24.956C40.281 25.772 39.177 26.18 37.761 26.18ZM47.2097 20.204V22.436C47.2097 22.832 47.3897 23.198 47.7497 23.534C48.1217 23.858 48.5417 24.02 49.0097 24.02C49.5617 24.02 49.9997 23.798 50.3237 23.354C50.6477 22.898 50.8097 22.22 50.8097 21.32C50.8097 19.52 50.2097 18.62 49.0097 18.62C48.5417 18.62 48.1217 18.788 47.7497 19.124C47.3897 19.448 47.2097 19.808 47.2097 20.204ZM45.3917 29.96C45.1157 29.96 44.8757 29.858 44.6717 29.654C44.4677 29.45 44.3657 29.21 44.3657 28.934V17.666C44.3657 17.39 44.4677 17.15 44.6717 16.946C44.8757 16.742 45.1157 16.64 45.3917 16.64H46.1117C46.3997 16.64 46.6457 16.742 46.8497 16.946C47.0537 17.138 47.1617 17.378 47.1737 17.666V17.81C47.1737 17.822 47.1797 17.828 47.1917 17.828L47.2277 17.792C47.9957 16.904 48.9197 16.46 49.9997 16.46C51.1157 16.46 52.0037 16.88 52.6637 17.72C53.3357 18.56 53.6717 19.76 53.6717 21.32C53.6717 22.832 53.3237 24.02 52.6277 24.884C51.9437 25.748 51.0677 26.18 49.9997 26.18C49.0037 26.18 48.1157 25.814 47.3357 25.082C47.3237 25.07 47.3117 25.064 47.2997 25.064C47.2877 25.064 47.2817 25.07 47.2817 25.082V28.934C47.2817 29.21 47.1797 29.45 46.9757 29.654C46.7717 29.858 46.5317 29.96 46.2557 29.96H45.3917ZM59.9203 21.716C58.4563 21.716 57.7243 22.166 57.7243 23.066C57.7243 23.39 57.8203 23.648 58.0123 23.84C58.2043 24.02 58.4623 24.11 58.7863 24.11C59.3623 24.11 59.8303 23.93 60.1903 23.57C60.5503 23.198 60.7303 22.706 60.7303 22.094V21.878C60.7303 21.77 60.6763 21.716 60.5683 21.716H59.9203ZM57.9043 26.18C57.0763 26.18 56.3923 25.916 55.8523 25.388C55.3243 24.848 55.0603 24.152 55.0603 23.3C55.0603 21.116 56.6803 20.024 59.9203 20.024H60.5683C60.6763 20.024 60.7303 19.976 60.7303 19.88V19.79C60.7303 19.334 60.6103 19.004 60.3703 18.8C60.1423 18.596 59.7523 18.494 59.2003 18.494C58.4683 18.494 57.5923 18.608 56.5723 18.836C56.3203 18.884 56.0923 18.83 55.8883 18.674C55.6963 18.518 55.6003 18.314 55.6003 18.062V18.026C55.6003 17.726 55.6903 17.456 55.8703 17.216C56.0623 16.964 56.3023 16.814 56.5903 16.766C57.6463 16.562 58.5583 16.46 59.3263 16.46C60.8983 16.46 62.0083 16.742 62.6563 17.306C63.3163 17.87 63.6463 18.806 63.6463 20.114V24.974C63.6463 25.25 63.5443 25.49 63.3403 25.694C63.1363 25.898 62.8963 26 62.6203 26H61.9543C61.6663 26 61.4203 25.904 61.2163 25.712C61.0123 25.508 60.9043 25.262 60.8923 24.974V24.776C60.8923 24.764 60.8863 24.758 60.8743 24.758C60.8503 24.758 60.8383 24.764 60.8383 24.776C60.0823 25.712 59.1043 26.18 57.9043 26.18ZM66.3661 25.892C66.0781 25.832 65.8441 25.682 65.6641 25.442C65.4841 25.19 65.3941 24.914 65.3941 24.614V24.542C65.3941 24.29 65.4961 24.092 65.7001 23.948C65.9041 23.792 66.1261 23.744 66.3661 23.804C67.0981 23.984 67.8661 24.074 68.6701 24.074C69.9301 24.074 70.5601 23.75 70.5601 23.102C70.5601 22.778 70.3561 22.532 69.9481 22.364C69.5521 22.196 68.8441 22.1 67.8241 22.076C67.5841 22.064 67.3741 21.974 67.1941 21.806C67.0141 21.626 66.9241 21.416 66.9241 21.176C66.9241 20.936 67.0081 20.732 67.1761 20.564C67.3561 20.384 67.5661 20.288 67.8061 20.276C69.5701 20.228 70.4521 19.904 70.4521 19.304C70.4521 18.752 69.8101 18.476 68.5261 18.476C67.9501 18.476 67.2841 18.584 66.5281 18.8C66.2761 18.86 66.0481 18.824 65.8441 18.692C65.6521 18.548 65.5561 18.35 65.5561 18.098V18.008C65.5561 17.696 65.6461 17.42 65.8261 17.18C66.0181 16.94 66.2581 16.79 66.5461 16.73C67.3141 16.55 68.0761 16.46 68.8321 16.46C70.2121 16.46 71.2981 16.694 72.0901 17.162C72.8941 17.63 73.2961 18.194 73.2961 18.854C73.2961 19.382 73.1101 19.844 72.7381 20.24C72.3661 20.624 71.8081 20.906 71.0641 21.086C71.0521 21.086 71.0461 21.092 71.0461 21.104C71.0461 21.128 71.0581 21.14 71.0821 21.14C71.7661 21.224 72.3241 21.488 72.7561 21.932C73.1881 22.376 73.4041 22.892 73.4041 23.48C73.4041 24.296 73.0081 24.95 72.2161 25.442C71.4361 25.934 70.3081 26.18 68.8321 26.18C68.0761 26.18 67.2541 26.084 66.3661 25.892ZM80.6509 19.16C80.3629 18.716 79.9189 18.494 79.3189 18.494C78.7189 18.494 78.2689 18.716 77.9689 19.16C77.6809 19.604 77.5369 20.324 77.5369 21.32C77.5369 22.316 77.6809 23.036 77.9689 23.48C78.2689 23.924 78.7189 24.146 79.3189 24.146C79.9189 24.146 80.3629 23.924 80.6509 23.48C80.9509 23.036 81.1009 22.316 81.1009 21.32C81.1009 20.324 80.9509 19.604 80.6509 19.16ZM82.7929 24.902C81.9649 25.754 80.8069 26.18 79.3189 26.18C77.8309 26.18 76.6729 25.754 75.8449 24.902C75.0169 24.05 74.6029 22.856 74.6029 21.32C74.6029 19.784 75.0169 18.59 75.8449 17.738C76.6729 16.886 77.8309 16.46 79.3189 16.46C80.8069 16.46 81.9649 16.886 82.7929 17.738C83.6209 18.59 84.0349 19.784 84.0349 21.32C84.0349 22.856 83.6209 24.05 82.7929 24.902ZM88.6778 22.166V24.092C88.6778 24.212 88.7318 24.272 88.8398 24.272C88.9238 24.284 89.0498 24.29 89.2178 24.29C90.3578 24.29 90.9278 23.888 90.9278 23.084C90.9278 22.364 90.3638 22.004 89.2358 22.004H88.8398C88.7318 22.004 88.6778 22.058 88.6778 22.166ZM88.6778 18.548V20.114C88.6778 20.21 88.7318 20.258 88.8398 20.258H89.1638C89.6198 20.258 89.9798 20.168 90.2438 19.988C90.5078 19.808 90.6398 19.562 90.6398 19.25C90.6398 18.65 90.1598 18.35 89.1998 18.35C89.0318 18.35 88.9118 18.356 88.8398 18.368C88.7318 18.368 88.6778 18.428 88.6778 18.548ZM86.8058 26.036C86.5178 26.012 86.2718 25.892 86.0678 25.676C85.8758 25.46 85.7798 25.208 85.7798 24.92V17.72C85.7798 17.432 85.8758 17.18 86.0678 16.964C86.2718 16.748 86.5178 16.628 86.8058 16.604C87.5618 16.544 88.2758 16.514 88.9478 16.514C91.8758 16.514 93.3398 17.312 93.3398 18.908C93.3398 19.448 93.1418 19.91 92.7458 20.294C92.3498 20.666 91.8098 20.906 91.1258 21.014V21.032C91.1258 21.044 91.1318 21.05 91.1438 21.05C91.9358 21.146 92.5598 21.404 93.0158 21.824C93.4718 22.232 93.6998 22.724 93.6998 23.3C93.6998 24.236 93.3338 24.944 92.6018 25.424C91.8818 25.892 90.7118 26.126 89.0918 26.126C88.3838 26.126 87.6218 26.096 86.8058 26.036ZM99.9457 21.716C98.4817 21.716 97.7497 22.166 97.7497 23.066C97.7497 23.39 97.8457 23.648 98.0377 23.84C98.2297 24.02 98.4877 24.11 98.8117 24.11C99.3877 24.11 99.8557 23.93 100.216 23.57C100.576 23.198 100.756 22.706 100.756 22.094V21.878C100.756 21.77 100.702 21.716 100.594 21.716H99.9457ZM97.9297 26.18C97.1017 26.18 96.4177 25.916 95.8777 25.388C95.3497 24.848 95.0857 24.152 95.0857 23.3C95.0857 21.116 96.7057 20.024 99.9457 20.024H100.594C100.702 20.024 100.756 19.976 100.756 19.88V19.79C100.756 19.334 100.636 19.004 100.396 18.8C100.168 18.596 99.7777 18.494 99.2257 18.494C98.4937 18.494 97.6177 18.608 96.5977 18.836C96.3457 18.884 96.1177 18.83 95.9137 18.674C95.7217 18.518 95.6257 18.314 95.6257 18.062V18.026C95.6257 17.726 95.7157 17.456 95.8957 17.216C96.0877 16.964 96.3277 16.814 96.6157 16.766C97.6717 16.562 98.5837 16.46 99.3517 16.46C100.924 16.46 102.034 16.742 102.682 17.306C103.342 17.87 103.672 18.806 103.672 20.114V24.974C103.672 25.25 103.57 25.49 103.366 25.694C103.162 25.898 102.922 26 102.646 26H101.98C101.692 26 101.446 25.904 101.242 25.712C101.038 25.508 100.93 25.262 100.918 24.974V24.776C100.918 24.764 100.912 24.758 100.9 24.758C100.876 24.758 100.864 24.764 100.864 24.776C100.108 25.712 99.1297 26.18 97.9297 26.18ZM106.445 18.836C106.169 18.836 105.929 18.734 105.725 18.53C105.521 18.326 105.419 18.086 105.419 17.81V17.666C105.419 17.39 105.521 17.15 105.725 16.946C105.929 16.742 106.169 16.64 106.445 16.64H112.961C113.237 16.64 113.477 16.742 113.681 16.946C113.885 17.15 113.987 17.39 113.987 17.666V17.81C113.987 18.086 113.885 18.326 113.681 18.53C113.477 18.734 113.237 18.836 112.961 18.836H111.359C111.263 18.836 111.215 18.89 111.215 18.998V24.974C111.215 25.25 111.113 25.49 110.909 25.694C110.705 25.898 110.465 26 110.189 26H109.217C108.941 26 108.701 25.898 108.497 25.694C108.293 25.49 108.191 25.25 108.191 24.974V18.998C108.191 18.89 108.143 18.836 108.047 18.836H106.445ZM119.835 18.422C119.295 18.422 118.887 18.566 118.611 18.854C118.335 19.13 118.161 19.61 118.089 20.294C118.089 20.39 118.131 20.438 118.215 20.438H121.257C121.365 20.438 121.419 20.384 121.419 20.276C121.371 19.04 120.843 18.422 119.835 18.422ZM120.285 26.18C118.653 26.18 117.393 25.766 116.505 24.938C115.629 24.11 115.191 22.904 115.191 21.32C115.191 19.748 115.581 18.548 116.361 17.72C117.153 16.88 118.293 16.46 119.781 16.46C122.637 16.46 124.089 18.02 124.137 21.14C124.137 21.428 124.023 21.674 123.795 21.878C123.579 22.07 123.327 22.166 123.039 22.166H118.233C118.113 22.166 118.065 22.22 118.089 22.328C118.185 22.988 118.437 23.462 118.845 23.75C119.265 24.026 119.889 24.164 120.717 24.164C121.257 24.164 121.839 24.086 122.463 23.93C122.715 23.87 122.937 23.918 123.129 24.074C123.333 24.23 123.435 24.434 123.435 24.686V24.722C123.435 25.022 123.339 25.298 123.147 25.55C122.967 25.79 122.733 25.934 122.445 25.982C121.749 26.114 121.029 26.18 120.285 26.18ZM126.089 26.09C125.825 26.126 125.591 26.048 125.387 25.856C125.183 25.664 125.081 25.43 125.081 25.154V25.082C125.081 24.53 125.417 24.14 126.089 23.912C126.509 23.768 126.791 23.498 126.935 23.102C127.091 22.694 127.169 22.022 127.169 21.086V17.666C127.169 17.39 127.271 17.15 127.475 16.946C127.679 16.742 127.919 16.64 128.195 16.64H134.117C134.393 16.64 134.627 16.742 134.819 16.946C135.023 17.15 135.125 17.39 135.125 17.666V24.974C135.125 25.25 135.023 25.49 134.819 25.694C134.627 25.898 134.393 26 134.117 26H133.217C132.941 26 132.701 25.898 132.497 25.694C132.293 25.49 132.191 25.25 132.191 24.974V18.908C132.191 18.812 132.137 18.764 132.029 18.764H130.193C130.085 18.764 130.031 18.812 130.031 18.908V21.428C130.031 22.964 129.743 24.08 129.167 24.776C128.603 25.46 127.577 25.898 126.089 26.09ZM140.375 21.302V23.876C140.375 23.996 140.417 24.062 140.501 24.074C140.681 24.122 140.885 24.146 141.113 24.146C141.713 24.146 142.151 24.014 142.427 23.75C142.703 23.486 142.841 23.078 142.841 22.526C142.841 22.058 142.691 21.698 142.391 21.446C142.103 21.182 141.671 21.05 141.095 21.05C140.951 21.05 140.759 21.074 140.519 21.122C140.423 21.146 140.375 21.206 140.375 21.302ZM138.485 26.054C138.197 26.018 137.957 25.892 137.765 25.676C137.585 25.448 137.495 25.184 137.495 24.884V17.666C137.495 17.39 137.591 17.15 137.783 16.946C137.987 16.742 138.227 16.64 138.503 16.64H139.349C139.625 16.64 139.865 16.742 140.069 16.946C140.273 17.15 140.375 17.39 140.375 17.666V18.962C140.375 18.998 140.387 19.034 140.411 19.07C140.435 19.094 140.465 19.1 140.501 19.088C140.789 19.04 141.137 19.016 141.545 19.016C142.829 19.016 143.825 19.334 144.533 19.97C145.241 20.594 145.595 21.446 145.595 22.526C145.595 23.762 145.211 24.68 144.443 25.28C143.675 25.88 142.469 26.18 140.825 26.18C139.973 26.18 139.193 26.138 138.485 26.054ZM148.364 26C148.088 26 147.848 25.898 147.644 25.694C147.44 25.49 147.338 25.25 147.338 24.974V17.666C147.338 17.39 147.44 17.15 147.644 16.946C147.848 16.742 148.088 16.64 148.364 16.64H149.282C149.558 16.64 149.792 16.742 149.984 16.946C150.188 17.15 150.29 17.39 150.29 17.666V19.97C150.29 20.066 150.344 20.114 150.452 20.114H152.72C152.828 20.114 152.882 20.066 152.882 19.97V17.666C152.882 17.39 152.978 17.15 153.17 16.946C153.374 16.742 153.614 16.64 153.89 16.64H154.808C155.084 16.64 155.324 16.742 155.528 16.946C155.732 17.15 155.834 17.39 155.834 17.666V24.974C155.834 25.25 155.732 25.49 155.528 25.694C155.324 25.898 155.084 26 154.808 26H153.89C153.614 26 153.374 25.898 153.17 25.694C152.978 25.49 152.882 25.25 152.882 24.974V22.31C152.882 22.202 152.828 22.148 152.72 22.148H150.452C150.344 22.148 150.29 22.202 150.29 22.31V24.974C150.29 25.25 150.188 25.49 149.984 25.694C149.792 25.898 149.558 26 149.282 26H148.364ZM162.612 21.716C161.148 21.716 160.416 22.166 160.416 23.066C160.416 23.39 160.512 23.648 160.704 23.84C160.896 24.02 161.154 24.11 161.478 24.11C162.054 24.11 162.522 23.93 162.882 23.57C163.242 23.198 163.422 22.706 163.422 22.094V21.878C163.422 21.77 163.368 21.716 163.26 21.716H162.612ZM160.596 26.18C159.768 26.18 159.084 25.916 158.544 25.388C158.016 24.848 157.752 24.152 157.752 23.3C157.752 21.116 159.372 20.024 162.612 20.024H163.26C163.368 20.024 163.422 19.976 163.422 19.88V19.79C163.422 19.334 163.302 19.004 163.062 18.8C162.834 18.596 162.444 18.494 161.892 18.494C161.16 18.494 160.284 18.608 159.264 18.836C159.012 18.884 158.784 18.83 158.58 18.674C158.388 18.518 158.292 18.314 158.292 18.062V18.026C158.292 17.726 158.382 17.456 158.562 17.216C158.754 16.964 158.994 16.814 159.282 16.766C160.338 16.562 161.25 16.46 162.018 16.46C163.59 16.46 164.7 16.742 165.348 17.306C166.008 17.87 166.338 18.806 166.338 20.114V24.974C166.338 25.25 166.236 25.49 166.032 25.694C165.828 25.898 165.588 26 165.312 26H164.646C164.358 26 164.112 25.904 163.908 25.712C163.704 25.508 163.596 25.262 163.584 24.974V24.776C163.584 24.764 163.578 24.758 163.566 24.758C163.542 24.758 163.53 24.764 163.53 24.776C162.774 25.712 161.796 26.18 160.596 26.18ZM172.622 18.548C171.41 18.548 170.804 18.908 170.804 19.628C170.804 19.964 170.96 20.234 171.272 20.438C171.596 20.63 172.064 20.726 172.676 20.726H173.126C173.234 20.726 173.288 20.678 173.288 20.582V18.746C173.288 18.626 173.228 18.566 173.108 18.566C173 18.554 172.838 18.548 172.622 18.548ZM170.21 21.788C169.574 21.608 169.052 21.296 168.644 20.852C168.236 20.408 168.031 19.904 168.031 19.34C168.031 17.456 169.52 16.514 172.496 16.514C173.552 16.514 174.44 16.544 175.16 16.604C175.448 16.616 175.688 16.736 175.88 16.964C176.072 17.18 176.168 17.432 176.168 17.72V24.974C176.168 25.25 176.066 25.49 175.862 25.694C175.67 25.898 175.436 26 175.16 26H174.296C174.02 26 173.78 25.898 173.576 25.694C173.384 25.49 173.288 25.25 173.288 24.974V22.868C173.288 22.76 173.234 22.706 173.126 22.706H172.802C172.43 22.706 172.172 22.754 172.028 22.85C171.884 22.946 171.734 23.174 171.578 23.534L170.948 25.064C170.828 25.352 170.642 25.58 170.39 25.748C170.138 25.916 169.856 26 169.544 26H168.752C168.512 26 168.326 25.898 168.194 25.694C168.062 25.49 168.044 25.28 168.14 25.064L168.878 23.408C169.082 22.964 169.28 22.628 169.472 22.4C169.676 22.172 169.922 21.986 170.21 21.842C170.234 21.842 170.246 21.83 170.246 21.806C170.246 21.794 170.234 21.788 170.21 21.788ZM52.6779 53C52.4019 53 52.1619 52.898 51.9579 52.694C51.7539 52.49 51.6519 52.25 51.6519 51.974V44.666C51.6519 44.39 51.7539 44.15 51.9579 43.946C52.1619 43.742 52.4019 43.64 52.6779 43.64H59.1579C59.4339 43.64 59.6739 43.742 59.8779 43.946C60.0819 44.15 60.1839 44.39 60.1839 44.666V51.974C60.1839 52.25 60.0819 52.49 59.8779 52.694C59.6739 52.898 59.4339 53 59.1579 53H58.2579C57.9819 53 57.7419 52.898 57.5379 52.694C57.3339 52.49 57.2319 52.25 57.2319 51.974V45.908C57.2319 45.812 57.1839 45.764 57.0879 45.764H54.7479C54.6519 45.764 54.6039 45.812 54.6039 45.908V51.974C54.6039 52.25 54.5019 52.49 54.2979 52.694C54.0939 52.898 53.8539 53 53.5779 53H52.6779ZM65.4119 47.204V49.436C65.4119 49.832 65.5919 50.198 65.9519 50.534C66.3239 50.858 66.7439 51.02 67.2119 51.02C67.7639 51.02 68.2019 50.798 68.5259 50.354C68.8499 49.898 69.0119 49.22 69.0119 48.32C69.0119 46.52 68.4119 45.62 67.2119 45.62C66.7439 45.62 66.3239 45.788 65.9519 46.124C65.5919 46.448 65.4119 46.808 65.4119 47.204ZM63.5939 56.96C63.3179 56.96 63.0779 56.858 62.8739 56.654C62.6699 56.45 62.5679 56.21 62.5679 55.934V44.666C62.5679 44.39 62.6699 44.15 62.8739 43.946C63.0779 43.742 63.3179 43.64 63.5939 43.64H64.3139C64.6019 43.64 64.8479 43.742 65.0519 43.946C65.2559 44.138 65.3639 44.378 65.3759 44.666V44.81C65.3759 44.822 65.3819 44.828 65.3939 44.828L65.4299 44.792C66.1979 43.904 67.1219 43.46 68.2019 43.46C69.3179 43.46 70.2059 43.88 70.8659 44.72C71.5379 45.56 71.8739 46.76 71.8739 48.32C71.8739 49.832 71.5259 51.02 70.8299 51.884C70.1459 52.748 69.2699 53.18 68.2019 53.18C67.2059 53.18 66.3179 52.814 65.5379 52.082C65.5259 52.07 65.5139 52.064 65.5019 52.064C65.4899 52.064 65.4839 52.07 65.4839 52.082V55.934C65.4839 56.21 65.3819 56.45 65.1779 56.654C64.9739 56.858 64.7339 56.96 64.4579 56.96H63.5939ZM79.1304 46.16C78.8424 45.716 78.3984 45.494 77.7984 45.494C77.1984 45.494 76.7484 45.716 76.4484 46.16C76.1604 46.604 76.0164 47.324 76.0164 48.32C76.0164 49.316 76.1604 50.036 76.4484 50.48C76.7484 50.924 77.1984 51.146 77.7984 51.146C78.3984 51.146 78.8424 50.924 79.1304 50.48C79.4304 50.036 79.5804 49.316 79.5804 48.32C79.5804 47.324 79.4304 46.604 79.1304 46.16ZM81.2724 51.902C80.4444 52.754 79.2864 53.18 77.7984 53.18C76.3104 53.18 75.1524 52.754 74.3244 51.902C73.4964 51.05 73.0824 49.856 73.0824 48.32C73.0824 46.784 73.4964 45.59 74.3244 44.738C75.1524 43.886 76.3104 43.46 77.7984 43.46C79.2864 43.46 80.4444 43.886 81.2724 44.738C82.1004 45.59 82.5144 46.784 82.5144 48.32C82.5144 49.856 82.1004 51.05 81.2724 51.902ZM85.2853 53C85.0093 53 84.7693 52.898 84.5653 52.694C84.3613 52.49 84.2593 52.25 84.2593 51.974V44.666C84.2593 44.39 84.3613 44.15 84.5653 43.946C84.7693 43.742 85.0093 43.64 85.2853 43.64H90.9913C91.2673 43.64 91.5013 43.742 91.6933 43.946C91.8973 44.15 91.9993 44.39 91.9993 44.666V44.756C91.9993 45.032 91.8973 45.272 91.6933 45.476C91.5013 45.668 91.2673 45.764 90.9913 45.764H87.4453C87.3493 45.764 87.3013 45.818 87.3013 45.926V51.974C87.3013 52.25 87.1993 52.49 86.9953 52.694C86.7913 52.898 86.5513 53 86.2753 53H85.2853ZM96.5955 47.204V49.436C96.5955 49.832 96.7755 50.198 97.1355 50.534C97.5075 50.858 97.9275 51.02 98.3955 51.02C98.9475 51.02 99.3855 50.798 99.7095 50.354C100.033 49.898 100.195 49.22 100.195 48.32C100.195 46.52 99.5955 45.62 98.3955 45.62C97.9275 45.62 97.5075 45.788 97.1355 46.124C96.7755 46.448 96.5955 46.808 96.5955 47.204ZM94.7775 56.96C94.5015 56.96 94.2615 56.858 94.0575 56.654C93.8535 56.45 93.7515 56.21 93.7515 55.934V44.666C93.7515 44.39 93.8535 44.15 94.0575 43.946C94.2615 43.742 94.5015 43.64 94.7775 43.64H95.4975C95.7855 43.64 96.0315 43.742 96.2355 43.946C96.4395 44.138 96.5475 44.378 96.5595 44.666V44.81C96.5595 44.822 96.5655 44.828 96.5775 44.828L96.6135 44.792C97.3815 43.904 98.3055 43.46 99.3855 43.46C100.501 43.46 101.389 43.88 102.049 44.72C102.721 45.56 103.057 46.76 103.057 48.32C103.057 49.832 102.709 51.02 102.013 51.884C101.329 52.748 100.453 53.18 99.3855 53.18C98.3895 53.18 97.5015 52.814 96.7215 52.082C96.7095 52.07 96.6975 52.064 96.6855 52.064C96.6735 52.064 96.6675 52.07 96.6675 52.082V55.934C96.6675 56.21 96.5655 56.45 96.3615 56.654C96.1575 56.858 95.9175 56.96 95.6415 56.96H94.7775ZM109.306 48.716C107.842 48.716 107.11 49.166 107.11 50.066C107.11 50.39 107.206 50.648 107.398 50.84C107.59 51.02 107.848 51.11 108.172 51.11C108.748 51.11 109.216 50.93 109.576 50.57C109.936 50.198 110.116 49.706 110.116 49.094V48.878C110.116 48.77 110.062 48.716 109.954 48.716H109.306ZM107.29 53.18C106.462 53.18 105.778 52.916 105.238 52.388C104.71 51.848 104.446 51.152 104.446 50.3C104.446 48.116 106.066 47.024 109.306 47.024H109.954C110.062 47.024 110.116 46.976 110.116 46.88V46.79C110.116 46.334 109.996 46.004 109.756 45.8C109.528 45.596 109.138 45.494 108.586 45.494C107.854 45.494 106.978 45.608 105.958 45.836C105.706 45.884 105.478 45.83 105.274 45.674C105.082 45.518 104.986 45.314 104.986 45.062V45.026C104.986 44.726 105.076 44.456 105.256 44.216C105.448 43.964 105.688 43.814 105.976 43.766C107.032 43.562 107.944 43.46 108.712 43.46C110.284 43.46 111.394 43.742 112.042 44.306C112.702 44.87 113.032 45.806 113.032 47.114V51.974C113.032 52.25 112.93 52.49 112.726 52.694C112.522 52.898 112.282 53 112.006 53H111.34C111.052 53 110.806 52.904 110.602 52.712C110.398 52.508 110.29 52.262 110.278 51.974V51.776C110.278 51.764 110.272 51.758 110.26 51.758C110.236 51.758 110.224 51.764 110.224 51.776C109.468 52.712 108.49 53.18 107.29 53.18ZM116.328 53C116.052 53 115.812 52.898 115.608 52.694C115.416 52.49 115.32 52.25 115.32 51.974V44.666C115.32 44.39 115.416 44.15 115.608 43.946C115.812 43.742 116.052 43.64 116.328 43.64H117.282C117.582 43.64 117.864 43.73 118.128 43.91C118.392 44.078 118.59 44.3 118.722 44.576L120.576 48.824L120.612 48.842L120.63 48.824L122.502 44.576C122.634 44.3 122.826 44.078 123.078 43.91C123.342 43.73 123.624 43.64 123.924 43.64H124.932C125.208 43.64 125.442 43.742 125.634 43.946C125.838 44.15 125.94 44.39 125.94 44.666V51.974C125.94 52.25 125.838 52.49 125.634 52.694C125.442 52.898 125.208 53 124.932 53H124.104C123.828 53 123.588 52.898 123.384 52.694C123.192 52.49 123.096 52.25 123.096 51.974V47.582L123.078 47.564L123.06 47.582L122.07 49.922C121.95 50.21 121.758 50.438 121.494 50.606C121.242 50.774 120.96 50.858 120.648 50.858H120.558C120.246 50.858 119.958 50.774 119.694 50.606C119.442 50.438 119.256 50.21 119.136 49.922L118.146 47.582L118.128 47.564L118.11 47.582V51.974C118.11 52.25 118.008 52.49 117.804 52.694C117.612 52.898 117.378 53 117.102 53H116.328ZM129.318 53C129.042 53 128.802 52.898 128.598 52.694C128.406 52.49 128.31 52.25 128.31 51.974V44.666C128.31 44.39 128.406 44.15 128.598 43.946C128.802 43.742 129.042 43.64 129.318 43.64H130.272C130.572 43.64 130.854 43.73 131.118 43.91C131.382 44.078 131.58 44.3 131.712 44.576L133.566 48.824L133.602 48.842L133.62 48.824L135.492 44.576C135.624 44.3 135.816 44.078 136.068 43.91C136.332 43.73 136.614 43.64 136.914 43.64H137.922C138.198 43.64 138.432 43.742 138.624 43.946C138.828 44.15 138.93 44.39 138.93 44.666V51.974C138.93 52.25 138.828 52.49 138.624 52.694C138.432 52.898 138.198 53 137.922 53H137.094C136.818 53 136.578 52.898 136.374 52.694C136.182 52.49 136.086 52.25 136.086 51.974V47.582L136.068 47.564L136.05 47.582L135.06 49.922C134.94 50.21 134.748 50.438 134.484 50.606C134.232 50.774 133.95 50.858 133.638 50.858H133.548C133.236 50.858 132.948 50.774 132.684 50.606C132.432 50.438 132.246 50.21 132.126 49.922L131.136 47.582L131.118 47.564L131.1 47.582V51.974C131.1 52.25 130.998 52.49 130.794 52.694C130.602 52.898 130.368 53 130.092 53H129.318ZM145.71 48.716C144.246 48.716 143.514 49.166 143.514 50.066C143.514 50.39 143.61 50.648 143.802 50.84C143.994 51.02 144.252 51.11 144.576 51.11C145.152 51.11 145.62 50.93 145.98 50.57C146.34 50.198 146.52 49.706 146.52 49.094V48.878C146.52 48.77 146.466 48.716 146.358 48.716H145.71ZM143.694 53.18C142.866 53.18 142.182 52.916 141.642 52.388C141.114 51.848 140.85 51.152 140.85 50.3C140.85 48.116 142.47 47.024 145.71 47.024H146.358C146.466 47.024 146.52 46.976 146.52 46.88V46.79C146.52 46.334 146.4 46.004 146.16 45.8C145.932 45.596 145.542 45.494 144.99 45.494C144.258 45.494 143.382 45.608 142.362 45.836C142.11 45.884 141.882 45.83 141.678 45.674C141.486 45.518 141.39 45.314 141.39 45.062V45.026C141.39 44.726 141.48 44.456 141.66 44.216C141.852 43.964 142.092 43.814 142.38 43.766C143.436 43.562 144.348 43.46 145.116 43.46C146.688 43.46 147.798 43.742 148.446 44.306C149.106 44.87 149.436 45.806 149.436 47.114V51.974C149.436 52.25 149.334 52.49 149.13 52.694C148.926 52.898 148.686 53 148.41 53H147.744C147.456 53 147.21 52.904 147.006 52.712C146.802 52.508 146.694 52.262 146.682 51.974V51.776C146.682 51.764 146.676 51.758 146.664 51.758C146.64 51.758 146.628 51.764 146.628 51.776C145.872 52.712 144.894 53.18 143.694 53.18Z" fill="#737589"/>
<line x1="2" y1="60" x2="198" y2="60" stroke="#F8EBE9" stroke-width="2"/>
<path d="M56.728 155.802C56.44 155.73 56.2 155.568 56.008 155.316C55.828 155.064 55.738 154.782 55.738 154.47V153.858C55.738 153.618 55.834 153.432 56.026 153.3C56.23 153.156 56.452 153.12 56.692 153.192C57.76 153.54 58.72 153.714 59.572 153.714C60.292 153.714 60.838 153.57 61.21 153.282C61.594 152.994 61.786 152.592 61.786 152.076C61.786 151.536 61.552 151.14 61.084 150.888C60.616 150.624 59.758 150.486 58.51 150.474C58.234 150.474 57.994 150.378 57.79 150.186C57.598 149.982 57.502 149.742 57.502 149.466V149.106C57.502 148.83 57.598 148.596 57.79 148.404C57.994 148.2 58.234 148.092 58.51 148.08C59.626 148.068 60.424 147.924 60.904 147.648C61.396 147.36 61.642 146.946 61.642 146.406C61.642 145.566 60.928 145.146 59.5 145.146C58.684 145.146 57.784 145.314 56.8 145.65C56.572 145.734 56.356 145.71 56.152 145.578C55.96 145.434 55.864 145.242 55.864 145.002V144.39C55.864 144.078 55.954 143.802 56.134 143.562C56.326 143.31 56.566 143.148 56.854 143.076C57.874 142.812 58.906 142.68 59.95 142.68C61.39 142.68 62.518 142.974 63.334 143.562C64.162 144.15 64.576 144.918 64.576 145.866C64.576 146.73 64.372 147.414 63.964 147.918C63.568 148.41 62.908 148.794 61.984 149.07C61.972 149.07 61.966 149.082 61.966 149.106C61.966 149.118 61.972 149.124 61.984 149.124C62.896 149.244 63.586 149.574 64.054 150.114C64.534 150.642 64.774 151.344 64.774 152.22C64.774 153.456 64.33 154.428 63.442 155.136C62.554 155.832 61.312 156.18 59.716 156.18C58.684 156.18 57.688 156.054 56.728 155.802ZM70.9339 151.716C69.4699 151.716 68.7379 152.166 68.7379 153.066C68.7379 153.39 68.8339 153.648 69.0259 153.84C69.2179 154.02 69.4759 154.11 69.7999 154.11C70.3759 154.11 70.8439 153.93 71.2039 153.57C71.5639 153.198 71.7439 152.706 71.7439 152.094V151.878C71.7439 151.77 71.6899 151.716 71.5819 151.716H70.9339ZM68.9179 156.18C68.0899 156.18 67.4059 155.916 66.8659 155.388C66.3379 154.848 66.0739 154.152 66.0739 153.3C66.0739 151.116 67.6939 150.024 70.9339 150.024H71.5819C71.6899 150.024 71.7439 149.976 71.7439 149.88V149.79C71.7439 149.334 71.6239 149.004 71.3839 148.8C71.1559 148.596 70.7659 148.494 70.2139 148.494C69.4819 148.494 68.6059 148.608 67.5859 148.836C67.3339 148.884 67.1059 148.83 66.9019 148.674C66.7099 148.518 66.6139 148.314 66.6139 148.062V148.026C66.6139 147.726 66.7039 147.456 66.8839 147.216C67.0759 146.964 67.3159 146.814 67.6039 146.766C68.6599 146.562 69.5719 146.46 70.3399 146.46C71.9119 146.46 73.0219 146.742 73.6699 147.306C74.3299 147.87 74.6599 148.806 74.6599 150.114V154.974C74.6599 155.25 74.5579 155.49 74.3539 155.694C74.1499 155.898 73.9099 156 73.6339 156H72.9679C72.6799 156 72.4339 155.904 72.2299 155.712C72.0259 155.508 71.9179 155.262 71.9059 154.974V154.776C71.9059 154.764 71.8999 154.758 71.8879 154.758C71.8639 154.758 71.8519 154.764 71.8519 154.776C71.0959 155.712 70.1179 156.18 68.9179 156.18ZM77.9738 156C77.6978 156 77.4578 155.898 77.2538 155.694C77.0498 155.49 76.9478 155.25 76.9478 154.974V147.666C76.9478 147.39 77.0498 147.15 77.2538 146.946C77.4578 146.742 77.6978 146.64 77.9738 146.64H83.6798C83.9558 146.64 84.1898 146.742 84.3818 146.946C84.5858 147.15 84.6878 147.39 84.6878 147.666V147.756C84.6878 148.032 84.5858 148.272 84.3818 148.476C84.1898 148.668 83.9558 148.764 83.6798 148.764H80.1338C80.0378 148.764 79.9898 148.818 79.9898 148.926V154.974C79.9898 155.25 79.8878 155.49 79.6838 155.694C79.4798 155.898 79.2398 156 78.9638 156H77.9738ZM89.284 150.204V152.436C89.284 152.832 89.464 153.198 89.824 153.534C90.196 153.858 90.616 154.02 91.084 154.02C91.636 154.02 92.074 153.798 92.398 153.354C92.722 152.898 92.884 152.22 92.884 151.32C92.884 149.52 92.284 148.62 91.084 148.62C90.616 148.62 90.196 148.788 89.824 149.124C89.464 149.448 89.284 149.808 89.284 150.204ZM87.466 159.96C87.19 159.96 86.95 159.858 86.746 159.654C86.542 159.45 86.44 159.21 86.44 158.934V147.666C86.44 147.39 86.542 147.15 86.746 146.946C86.95 146.742 87.19 146.64 87.466 146.64H88.186C88.474 146.64 88.72 146.742 88.924 146.946C89.128 147.138 89.236 147.378 89.248 147.666V147.81C89.248 147.822 89.254 147.828 89.266 147.828L89.302 147.792C90.07 146.904 90.994 146.46 92.074 146.46C93.19 146.46 94.078 146.88 94.738 147.72C95.41 148.56 95.746 149.76 95.746 151.32C95.746 152.832 95.398 154.02 94.702 154.884C94.018 155.748 93.142 156.18 92.074 156.18C91.078 156.18 90.19 155.814 89.41 155.082C89.398 155.07 89.386 155.064 89.374 155.064C89.362 155.064 89.356 155.07 89.356 155.082V158.934C89.356 159.21 89.254 159.45 89.05 159.654C88.846 159.858 88.606 159.96 88.33 159.96H87.466ZM100.338 155.856L97.1345 147.594C97.0385 147.366 97.0565 147.15 97.1885 146.946C97.3325 146.742 97.5305 146.64 97.7825 146.64H98.9345C99.2225 146.64 99.4865 146.736 99.7265 146.928C99.9665 147.108 100.128 147.342 100.212 147.63L101.706 153.228C101.706 153.24 101.712 153.246 101.724 153.246C101.736 153.246 101.742 153.24 101.742 153.228L103.38 147.612C103.452 147.324 103.608 147.09 103.848 146.91C104.1 146.73 104.382 146.64 104.694 146.64H105.702C105.954 146.64 106.146 146.742 106.278 146.946C106.422 147.15 106.452 147.366 106.368 147.594L103.218 156.126C102.726 157.446 102.108 158.412 101.364 159.024C100.62 159.636 99.6185 159.996 98.3585 160.104C98.0825 160.128 97.8425 160.038 97.6385 159.834C97.4345 159.642 97.3325 159.402 97.3325 159.114V158.97C97.3325 158.694 97.4285 158.454 97.6205 158.25C97.8245 158.046 98.0705 157.926 98.3585 157.89C98.8985 157.806 99.3125 157.632 99.6005 157.368C99.9005 157.116 100.146 156.708 100.338 156.144C100.35 156.096 100.356 156.048 100.356 156C100.356 155.952 100.35 155.904 100.338 155.856ZM108.37 155.892C108.082 155.832 107.848 155.682 107.668 155.442C107.488 155.19 107.398 154.914 107.398 154.614V154.542C107.398 154.29 107.5 154.092 107.704 153.948C107.908 153.792 108.13 153.744 108.37 153.804C109.102 153.984 109.87 154.074 110.674 154.074C111.934 154.074 112.564 153.75 112.564 153.102C112.564 152.778 112.36 152.532 111.952 152.364C111.556 152.196 110.848 152.1 109.828 152.076C109.588 152.064 109.378 151.974 109.198 151.806C109.018 151.626 108.928 151.416 108.928 151.176C108.928 150.936 109.012 150.732 109.18 150.564C109.36 150.384 109.57 150.288 109.81 150.276C111.574 150.228 112.456 149.904 112.456 149.304C112.456 148.752 111.814 148.476 110.53 148.476C109.954 148.476 109.288 148.584 108.532 148.8C108.28 148.86 108.052 148.824 107.848 148.692C107.656 148.548 107.56 148.35 107.56 148.098V148.008C107.56 147.696 107.65 147.42 107.83 147.18C108.022 146.94 108.262 146.79 108.55 146.73C109.318 146.55 110.08 146.46 110.836 146.46C112.216 146.46 113.302 146.694 114.094 147.162C114.898 147.63 115.3 148.194 115.3 148.854C115.3 149.382 115.114 149.844 114.742 150.24C114.37 150.624 113.812 150.906 113.068 151.086C113.056 151.086 113.05 151.092 113.05 151.104C113.05 151.128 113.062 151.14 113.086 151.14C113.77 151.224 114.328 151.488 114.76 151.932C115.192 152.376 115.408 152.892 115.408 153.48C115.408 154.296 115.012 154.95 114.22 155.442C113.44 155.934 112.312 156.18 110.836 156.18C110.08 156.18 109.258 156.084 108.37 155.892ZM118.263 156C117.987 156 117.747 155.898 117.543 155.694C117.339 155.49 117.237 155.25 117.237 154.974V147.666C117.237 147.39 117.339 147.15 117.543 146.946C117.747 146.742 117.987 146.64 118.263 146.64H119.109C119.385 146.64 119.625 146.742 119.829 146.946C120.033 147.15 120.135 147.39 120.135 147.666V152.022H120.153H120.171L122.385 147.558C122.685 146.946 123.177 146.64 123.861 146.64H124.743C125.019 146.64 125.259 146.742 125.463 146.946C125.667 147.15 125.769 147.39 125.769 147.666V154.974C125.769 155.25 125.667 155.49 125.463 155.694C125.259 155.898 125.019 156 124.743 156H123.897C123.621 156 123.381 155.898 123.177 155.694C122.973 155.49 122.871 155.25 122.871 154.974V150.618H122.853H122.835L120.621 155.082C120.321 155.694 119.829 156 119.145 156H118.263ZM128.639 148.836C128.363 148.836 128.123 148.734 127.919 148.53C127.715 148.326 127.613 148.086 127.613 147.81V147.666C127.613 147.39 127.715 147.15 127.919 146.946C128.123 146.742 128.363 146.64 128.639 146.64H135.155C135.431 146.64 135.671 146.742 135.875 146.946C136.079 147.15 136.181 147.39 136.181 147.666V147.81C136.181 148.086 136.079 148.326 135.875 148.53C135.671 148.734 135.431 148.836 135.155 148.836H133.553C133.457 148.836 133.409 148.89 133.409 148.998V154.974C133.409 155.25 133.307 155.49 133.103 155.694C132.899 155.898 132.659 156 132.383 156H131.411C131.135 156 130.895 155.898 130.691 155.694C130.487 155.49 130.385 155.25 130.385 154.974V148.998C130.385 148.89 130.337 148.836 130.241 148.836H128.639ZM140.894 151.302V153.876C140.894 153.996 140.936 154.062 141.02 154.074C141.2 154.122 141.404 154.146 141.632 154.146C142.232 154.146 142.67 154.014 142.946 153.75C143.222 153.486 143.36 153.078 143.36 152.526C143.36 152.058 143.21 151.698 142.91 151.446C142.622 151.182 142.19 151.05 141.614 151.05C141.47 151.05 141.278 151.074 141.038 151.122C140.942 151.146 140.894 151.206 140.894 151.302ZM139.004 156.054C138.716 156.018 138.476 155.892 138.284 155.676C138.104 155.448 138.014 155.184 138.014 154.884V147.666C138.014 147.39 138.11 147.15 138.302 146.946C138.506 146.742 138.746 146.64 139.022 146.64H139.868C140.144 146.64 140.384 146.742 140.588 146.946C140.792 147.15 140.894 147.39 140.894 147.666V148.962C140.894 148.998 140.906 149.034 140.93 149.07C140.954 149.094 140.984 149.1 141.02 149.088C141.308 149.04 141.656 149.016 142.064 149.016C143.348 149.016 144.344 149.334 145.052 149.97C145.76 150.594 146.114 151.446 146.114 152.526C146.114 153.762 145.73 154.68 144.962 155.28C144.194 155.88 142.988 156.18 141.344 156.18C140.492 156.18 139.712 156.138 139.004 156.054Z" fill="#737589" fill-opacity="0.3"/>
<path fill-rule="evenodd" clip-rule="evenodd" d="M100.5 74.3857C101.093 74.3857 101.656 74.6448 102.042 75.0951L110.167 84.5742C110.897 85.426 110.799 86.7083 109.947 87.4384C109.095 88.1685 107.813 88.0698 107.083 87.2181L102.531 81.908V111.625C102.531 112.747 101.622 113.657 100.5 113.657C99.3782 113.657 98.4687 112.747 98.4687 111.625V81.908L93.9172 87.2181C93.1872 88.0698 91.9048 88.1685 91.0531 87.4384C90.2013 86.7083 90.1027 85.426 90.8328 84.5742L98.9579 75.0951C99.3435 74.6448 99.9071 74.3857 100.5 74.3857ZM86.947 93.3494C88.0688 93.3432 88.9833 94.2475 88.9895 95.3693C88.9958 96.4911 88.0914 97.4056 86.9696 97.4118C84.0081 97.4283 81.9089 97.5052 80.3157 97.7979C78.7806 98.0798 77.8921 98.5327 77.2327 99.1919C76.4832 99.9416 75.9944 100.994 75.7273 102.981C75.4522 105.027 75.4479 107.738 75.4479 111.626V114.334C75.4479 118.222 75.4522 120.933 75.7273 122.979C75.9944 124.966 76.4832 126.018 77.2327 126.768C77.9823 127.518 79.0347 128.006 81.022 128.274C83.0677 128.549 85.7791 128.553 89.6667 128.553H111.333C115.221 128.553 117.932 128.549 119.978 128.274C121.965 128.006 123.018 127.518 123.767 126.768C124.517 126.018 125.006 124.966 125.273 122.979C125.548 120.933 125.552 118.222 125.552 114.334V111.626C125.552 107.738 125.548 105.027 125.273 102.981C125.006 100.994 124.517 99.9416 123.767 99.1919C123.108 98.5327 122.219 98.0798 120.684 97.7979C119.091 97.5052 116.992 97.4283 114.03 97.4118C112.908 97.4056 112.004 96.4911 112.01 95.3693C112.017 94.2475 112.931 93.3432 114.053 93.3494C116.982 93.3657 119.423 93.4358 121.418 93.8022C123.471 94.1793 125.218 94.8977 126.64 96.3193C128.27 97.9495 128.971 100.002 129.299 102.44C129.615 104.788 129.615 107.774 129.615 111.477V114.483C129.615 118.187 129.615 121.172 129.299 123.52C128.971 125.958 128.27 128.01 126.64 129.641C125.01 131.271 122.957 131.972 120.519 132.3C118.171 132.616 115.186 132.615 111.482 132.615H89.5181C85.8142 132.615 82.8287 132.616 80.4807 132.3C78.0429 131.972 75.9903 131.271 74.3601 129.641C72.7299 128.01 72.0287 125.958 71.701 123.52C71.3853 121.172 71.3854 118.187 71.3854 114.483V111.477C71.3854 107.773 71.3853 104.788 71.701 102.44C72.0287 100.002 72.7299 97.9495 74.3601 96.3193C75.7818 94.8977 77.5289 94.1793 79.5818 93.8022C81.5766 93.4358 84.0179 93.3657 86.947 93.3494Z" fill="#737589" fill-opacity="0.3" stroke="black" stroke-width="0.008"/>
</svg>
