<svg width="200" height="171" viewBox="0 0 200 171" fill="none" xmlns="http://www.w3.org/2000/svg">
<rect x="0.75" y="0.75" width="198.5" height="169.5" rx="29.25" fill="white" stroke="#E5C5BF" stroke-width="1.5"/>
<path d="M41.312 34.92C41.296 34.968 41.304 35.016 41.336 35.064C41.384 35.096 41.432 35.112 41.48 35.112H44.696C44.744 35.112 44.784 35.096 44.816 35.064C44.864 35.016 44.88 34.968 44.864 34.92L43.112 28.032C43.112 28.016 43.104 28.008 43.088 28.008C43.072 28.008 43.064 28.016 43.064 28.032L41.312 34.92ZM36.656 42C36.32 42 36.048 41.864 35.84 41.592C35.648 41.32 35.608 41.024 35.72 40.704L40.568 25.776C40.696 25.392 40.92 25.08 41.24 24.84C41.576 24.6 41.944 24.48 42.344 24.48H43.928C44.344 24.48 44.72 24.6 45.056 24.84C45.392 25.08 45.616 25.392 45.728 25.776L50.552 40.704C50.664 41.024 50.616 41.32 50.408 41.592C50.216 41.864 49.952 42 49.616 42H48.008C47.608 42 47.248 41.88 46.928 41.64C46.608 41.384 46.4 41.064 46.304 40.68L45.728 38.4C45.712 38.272 45.632 38.208 45.488 38.208H40.688C40.56 38.208 40.48 38.272 40.448 38.4L39.872 40.68C39.776 41.064 39.568 41.384 39.248 41.64C38.928 41.88 38.568 42 38.168 42H36.656ZM53.8895 42C53.5215 42 53.2015 41.864 52.9295 41.592C52.6575 41.32 52.5215 41 52.5215 40.632V30.888C52.5215 30.52 52.6575 30.2 52.9295 29.928C53.2015 29.656 53.5215 29.52 53.8895 29.52H55.1135C55.4815 29.52 55.7935 29.656 56.0495 29.928C56.3215 30.2 56.4575 30.52 56.4575 30.888V33.96C56.4575 34.088 56.5295 34.152 56.6735 34.152H59.6975C59.8415 34.152 59.9135 34.088 59.9135 33.96V30.888C59.9135 30.52 60.0415 30.2 60.2975 29.928C60.5695 29.656 60.8895 29.52 61.2575 29.52H62.4815C62.8495 29.52 63.1695 29.656 63.4415 29.928C63.7135 30.2 63.8495 30.52 63.8495 30.888V40.632C63.8495 41 63.7135 41.32 63.4415 41.592C63.1695 41.864 62.8495 42 62.4815 42H61.2575C60.8895 42 60.5695 41.864 60.2975 41.592C60.0415 41.32 59.9135 41 59.9135 40.632V37.08C59.9135 36.936 59.8415 36.864 59.6975 36.864H56.6735C56.5295 36.864 56.4575 36.936 56.4575 37.08V40.632C56.4575 41 56.3215 41.32 56.0495 41.592C55.7935 41.864 55.4815 42 55.1135 42H53.8895ZM68.3739 42C68.0059 42 67.6859 41.864 67.4139 41.592C67.1419 41.32 67.0059 41 67.0059 40.632V30.888C67.0059 30.52 67.1419 30.2 67.4139 29.928C67.6859 29.656 68.0059 29.52 68.3739 29.52H69.5979C69.9659 29.52 70.2779 29.656 70.5339 29.928C70.8059 30.2 70.9419 30.52 70.9419 30.888V33.96C70.9419 34.088 71.0139 34.152 71.1579 34.152H74.1819C74.3259 34.152 74.3979 34.088 74.3979 33.96V30.888C74.3979 30.52 74.5259 30.2 74.7819 29.928C75.0539 29.656 75.3739 29.52 75.7419 29.52H76.9659C77.3339 29.52 77.6539 29.656 77.9259 29.928C78.1979 30.2 78.3339 30.52 78.3339 30.888V40.632C78.3339 41 78.1979 41.32 77.9259 41.592C77.6539 41.864 77.3339 42 76.9659 42H75.7419C75.3739 42 75.0539 41.864 74.7819 41.592C74.5259 41.32 74.3979 41 74.3979 40.632V37.08C74.3979 36.936 74.3259 36.864 74.1819 36.864H71.1579C71.0139 36.864 70.9419 36.936 70.9419 37.08V40.632C70.9419 41 70.8059 41.32 70.5339 41.592C70.2779 41.864 69.9659 42 69.5979 42H68.3739ZM88.7143 32.88C88.3303 32.288 87.7383 31.992 86.9383 31.992C86.1383 31.992 85.5383 32.288 85.1383 32.88C84.7543 33.472 84.5623 34.432 84.5623 35.76C84.5623 37.088 84.7543 38.048 85.1383 38.64C85.5383 39.232 86.1383 39.528 86.9383 39.528C87.7383 39.528 88.3303 39.232 88.7143 38.64C89.1143 38.048 89.3143 37.088 89.3143 35.76C89.3143 34.432 89.1143 33.472 88.7143 32.88ZM91.5703 40.536C90.4663 41.672 88.9223 42.24 86.9383 42.24C84.9543 42.24 83.4103 41.672 82.3063 40.536C81.2023 39.4 80.6503 37.808 80.6503 35.76C80.6503 33.712 81.2023 32.12 82.3063 30.984C83.4103 29.848 84.9543 29.28 86.9383 29.28C88.9223 29.28 90.4663 29.848 91.5703 30.984C92.6743 32.12 93.2263 33.712 93.2263 35.76C93.2263 37.808 92.6743 39.4 91.5703 40.536ZM96.2008 32.448C95.8328 32.448 95.5128 32.312 95.2408 32.04C94.9688 31.768 94.8328 31.448 94.8328 31.08V30.888C94.8328 30.52 94.9688 30.2 95.2408 29.928C95.5128 29.656 95.8328 29.52 96.2008 29.52H104.889C105.257 29.52 105.577 29.656 105.849 29.928C106.121 30.2 106.257 30.52 106.257 30.888V31.08C106.257 31.448 106.121 31.768 105.849 32.04C105.577 32.312 105.257 32.448 104.889 32.448H102.753C102.625 32.448 102.561 32.52 102.561 32.664V40.632C102.561 41 102.425 41.32 102.153 41.592C101.881 41.864 101.561 42 101.193 42H99.8968C99.5288 42 99.2088 41.864 98.9368 41.592C98.6648 41.32 98.5288 41 98.5288 40.632V32.664C98.5288 32.52 98.4648 32.448 98.3368 32.448H96.2008ZM114.581 36.288C112.629 36.288 111.653 36.888 111.653 38.088C111.653 38.52 111.781 38.864 112.037 39.12C112.293 39.36 112.637 39.48 113.069 39.48C113.837 39.48 114.461 39.24 114.941 38.76C115.421 38.264 115.661 37.608 115.661 36.792V36.504C115.661 36.36 115.589 36.288 115.445 36.288H114.581ZM111.893 42.24C110.789 42.24 109.877 41.888 109.157 41.184C108.453 40.464 108.101 39.536 108.101 38.4C108.101 35.488 110.261 34.032 114.581 34.032H115.445C115.589 34.032 115.661 33.968 115.661 33.84V33.72C115.661 33.112 115.501 32.672 115.181 32.4C114.877 32.128 114.357 31.992 113.621 31.992C112.645 31.992 111.477 32.144 110.117 32.448C109.781 32.512 109.477 32.44 109.205 32.232C108.949 32.024 108.821 31.752 108.821 31.416V31.368C108.821 30.968 108.941 30.608 109.181 30.288C109.437 29.952 109.757 29.752 110.141 29.688C111.549 29.416 112.765 29.28 113.789 29.28C115.885 29.28 117.365 29.656 118.229 30.408C119.109 31.16 119.549 32.408 119.549 34.152V40.632C119.549 41 119.413 41.32 119.141 41.592C118.869 41.864 118.549 42 118.181 42H117.293C116.909 42 116.581 41.872 116.309 41.616C116.037 41.344 115.893 41.016 115.877 40.632V40.368C115.877 40.352 115.869 40.344 115.853 40.344C115.821 40.344 115.805 40.352 115.805 40.368C114.797 41.616 113.493 42.24 111.893 42.24ZM123.968 42C123.6 42 123.28 41.864 123.008 41.592C122.736 41.32 122.6 41 122.6 40.632V30.888C122.6 30.52 122.736 30.2 123.008 29.928C123.28 29.656 123.6 29.52 123.968 29.52H125.168C125.536 29.52 125.848 29.656 126.104 29.928C126.376 30.2 126.512 30.52 126.512 30.888V39.144C126.512 39.272 126.584 39.336 126.728 39.336H129.824C129.968 39.336 130.04 39.272 130.04 39.144V30.888C130.04 30.52 130.176 30.2 130.448 29.928C130.72 29.656 131.04 29.52 131.408 29.52H132.608C132.976 29.52 133.288 29.656 133.544 29.928C133.816 30.2 133.952 30.52 133.952 30.888V39.144C133.952 39.272 134.024 39.336 134.168 39.336H135.08C135.448 39.336 135.768 39.472 136.04 39.744C136.312 40.016 136.448 40.336 136.448 40.704V43.512C136.448 43.88 136.312 44.2 136.04 44.472C135.768 44.744 135.448 44.88 135.08 44.88H134.36C133.992 44.88 133.672 44.744 133.4 44.472C133.128 44.2 132.992 43.88 132.992 43.512V42.216C132.992 42.072 132.928 42 132.8 42H123.968ZM140.022 42C139.654 42 139.334 41.864 139.062 41.592C138.79 41.32 138.654 41 138.654 40.632V30.888C138.654 30.52 138.79 30.2 139.062 29.928C139.334 29.656 139.654 29.52 140.022 29.52H141.15C141.518 29.52 141.838 29.656 142.11 29.928C142.382 30.2 142.518 30.52 142.518 30.888V36.696H142.542H142.566L145.518 30.744C145.918 29.928 146.574 29.52 147.486 29.52H148.662C149.03 29.52 149.35 29.656 149.622 29.928C149.894 30.2 150.03 30.52 150.03 30.888V40.632C150.03 41 149.894 41.32 149.622 41.592C149.35 41.864 149.03 42 148.662 42H147.534C147.166 42 146.846 41.864 146.574 41.592C146.302 41.32 146.166 41 146.166 40.632V34.824H146.142H146.118L143.166 40.776C142.766 41.592 142.11 42 141.198 42H140.022ZM158.537 32.064C156.921 32.064 156.113 32.544 156.113 33.504C156.113 33.952 156.321 34.312 156.737 34.584C157.169 34.84 157.793 34.968 158.609 34.968H159.209C159.353 34.968 159.425 34.904 159.425 34.776V32.328C159.425 32.168 159.345 32.088 159.185 32.088C159.041 32.072 158.825 32.064 158.537 32.064ZM155.321 36.384C154.473 36.144 153.777 35.728 153.233 35.136C152.689 34.544 152.417 33.872 152.417 33.12C152.417 30.608 154.401 29.352 158.369 29.352C159.777 29.352 160.961 29.392 161.921 29.472C162.305 29.488 162.625 29.648 162.881 29.952C163.137 30.24 163.265 30.576 163.265 30.96V40.632C163.265 41 163.129 41.32 162.857 41.592C162.601 41.864 162.289 42 161.921 42H160.769C160.401 42 160.081 41.864 159.809 41.592C159.553 41.32 159.425 41 159.425 40.632V37.824C159.425 37.68 159.353 37.608 159.209 37.608H158.777C158.281 37.608 157.937 37.672 157.745 37.8C157.553 37.928 157.353 38.232 157.145 38.712L156.305 40.752C156.145 41.136 155.897 41.44 155.561 41.664C155.225 41.888 154.849 42 154.433 42H153.377C153.057 42 152.809 41.864 152.633 41.592C152.457 41.32 152.433 41.04 152.561 40.752L153.545 38.544C153.817 37.952 154.081 37.504 154.337 37.2C154.609 36.896 154.937 36.648 155.321 36.456C155.353 36.456 155.369 36.44 155.369 36.408C155.369 36.392 155.353 36.384 155.321 36.384Z" fill="#737589"/>
<line x1="2" y1="60" x2="198" y2="60" stroke="#F8EBE9" stroke-width="2"/>
<path d="M56.728 155.802C56.44 155.73 56.2 155.568 56.008 155.316C55.828 155.064 55.738 154.782 55.738 154.47V153.858C55.738 153.618 55.834 153.432 56.026 153.3C56.23 153.156 56.452 153.12 56.692 153.192C57.76 153.54 58.72 153.714 59.572 153.714C60.292 153.714 60.838 153.57 61.21 153.282C61.594 152.994 61.786 152.592 61.786 152.076C61.786 151.536 61.552 151.14 61.084 150.888C60.616 150.624 59.758 150.486 58.51 150.474C58.234 150.474 57.994 150.378 57.79 150.186C57.598 149.982 57.502 149.742 57.502 149.466V149.106C57.502 148.83 57.598 148.596 57.79 148.404C57.994 148.2 58.234 148.092 58.51 148.08C59.626 148.068 60.424 147.924 60.904 147.648C61.396 147.36 61.642 146.946 61.642 146.406C61.642 145.566 60.928 145.146 59.5 145.146C58.684 145.146 57.784 145.314 56.8 145.65C56.572 145.734 56.356 145.71 56.152 145.578C55.96 145.434 55.864 145.242 55.864 145.002V144.39C55.864 144.078 55.954 143.802 56.134 143.562C56.326 143.31 56.566 143.148 56.854 143.076C57.874 142.812 58.906 142.68 59.95 142.68C61.39 142.68 62.518 142.974 63.334 143.562C64.162 144.15 64.576 144.918 64.576 145.866C64.576 146.73 64.372 147.414 63.964 147.918C63.568 148.41 62.908 148.794 61.984 149.07C61.972 149.07 61.966 149.082 61.966 149.106C61.966 149.118 61.972 149.124 61.984 149.124C62.896 149.244 63.586 149.574 64.054 150.114C64.534 150.642 64.774 151.344 64.774 152.22C64.774 153.456 64.33 154.428 63.442 155.136C62.554 155.832 61.312 156.18 59.716 156.18C58.684 156.18 57.688 156.054 56.728 155.802ZM70.9339 151.716C69.4699 151.716 68.7379 152.166 68.7379 153.066C68.7379 153.39 68.8339 153.648 69.0259 153.84C69.2179 154.02 69.4759 154.11 69.7999 154.11C70.3759 154.11 70.8439 153.93 71.2039 153.57C71.5639 153.198 71.7439 152.706 71.7439 152.094V151.878C71.7439 151.77 71.6899 151.716 71.5819 151.716H70.9339ZM68.9179 156.18C68.0899 156.18 67.4059 155.916 66.8659 155.388C66.3379 154.848 66.0739 154.152 66.0739 153.3C66.0739 151.116 67.6939 150.024 70.9339 150.024H71.5819C71.6899 150.024 71.7439 149.976 71.7439 149.88V149.79C71.7439 149.334 71.6239 149.004 71.3839 148.8C71.1559 148.596 70.7659 148.494 70.2139 148.494C69.4819 148.494 68.6059 148.608 67.5859 148.836C67.3339 148.884 67.1059 148.83 66.9019 148.674C66.7099 148.518 66.6139 148.314 66.6139 148.062V148.026C66.6139 147.726 66.7039 147.456 66.8839 147.216C67.0759 146.964 67.3159 146.814 67.6039 146.766C68.6599 146.562 69.5719 146.46 70.3399 146.46C71.9119 146.46 73.0219 146.742 73.6699 147.306C74.3299 147.87 74.6599 148.806 74.6599 150.114V154.974C74.6599 155.25 74.5579 155.49 74.3539 155.694C74.1499 155.898 73.9099 156 73.6339 156H72.9679C72.6799 156 72.4339 155.904 72.2299 155.712C72.0259 155.508 71.9179 155.262 71.9059 154.974V154.776C71.9059 154.764 71.8999 154.758 71.8879 154.758C71.8639 154.758 71.8519 154.764 71.8519 154.776C71.0959 155.712 70.1179 156.18 68.9179 156.18ZM77.9738 156C77.6978 156 77.4578 155.898 77.2538 155.694C77.0498 155.49 76.9478 155.25 76.9478 154.974V147.666C76.9478 147.39 77.0498 147.15 77.2538 146.946C77.4578 146.742 77.6978 146.64 77.9738 146.64H83.6798C83.9558 146.64 84.1898 146.742 84.3818 146.946C84.5858 147.15 84.6878 147.39 84.6878 147.666V147.756C84.6878 148.032 84.5858 148.272 84.3818 148.476C84.1898 148.668 83.9558 148.764 83.6798 148.764H80.1338C80.0378 148.764 79.9898 148.818 79.9898 148.926V154.974C79.9898 155.25 79.8878 155.49 79.6838 155.694C79.4798 155.898 79.2398 156 78.9638 156H77.9738ZM89.284 150.204V152.436C89.284 152.832 89.464 153.198 89.824 153.534C90.196 153.858 90.616 154.02 91.084 154.02C91.636 154.02 92.074 153.798 92.398 153.354C92.722 152.898 92.884 152.22 92.884 151.32C92.884 149.52 92.284 148.62 91.084 148.62C90.616 148.62 90.196 148.788 89.824 149.124C89.464 149.448 89.284 149.808 89.284 150.204ZM87.466 159.96C87.19 159.96 86.95 159.858 86.746 159.654C86.542 159.45 86.44 159.21 86.44 158.934V147.666C86.44 147.39 86.542 147.15 86.746 146.946C86.95 146.742 87.19 146.64 87.466 146.64H88.186C88.474 146.64 88.72 146.742 88.924 146.946C89.128 147.138 89.236 147.378 89.248 147.666V147.81C89.248 147.822 89.254 147.828 89.266 147.828L89.302 147.792C90.07 146.904 90.994 146.46 92.074 146.46C93.19 146.46 94.078 146.88 94.738 147.72C95.41 148.56 95.746 149.76 95.746 151.32C95.746 152.832 95.398 154.02 94.702 154.884C94.018 155.748 93.142 156.18 92.074 156.18C91.078 156.18 90.19 155.814 89.41 155.082C89.398 155.07 89.386 155.064 89.374 155.064C89.362 155.064 89.356 155.07 89.356 155.082V158.934C89.356 159.21 89.254 159.45 89.05 159.654C88.846 159.858 88.606 159.96 88.33 159.96H87.466ZM100.338 155.856L97.1345 147.594C97.0385 147.366 97.0565 147.15 97.1885 146.946C97.3325 146.742 97.5305 146.64 97.7825 146.64H98.9345C99.2225 146.64 99.4865 146.736 99.7265 146.928C99.9665 147.108 100.128 147.342 100.212 147.63L101.706 153.228C101.706 153.24 101.712 153.246 101.724 153.246C101.736 153.246 101.742 153.24 101.742 153.228L103.38 147.612C103.452 147.324 103.608 147.09 103.848 146.91C104.1 146.73 104.382 146.64 104.694 146.64H105.702C105.954 146.64 106.146 146.742 106.278 146.946C106.422 147.15 106.452 147.366 106.368 147.594L103.218 156.126C102.726 157.446 102.108 158.412 101.364 159.024C100.62 159.636 99.6185 159.996 98.3585 160.104C98.0825 160.128 97.8425 160.038 97.6385 159.834C97.4345 159.642 97.3325 159.402 97.3325 159.114V158.97C97.3325 158.694 97.4285 158.454 97.6205 158.25C97.8245 158.046 98.0705 157.926 98.3585 157.89C98.8985 157.806 99.3125 157.632 99.6005 157.368C99.9005 157.116 100.146 156.708 100.338 156.144C100.35 156.096 100.356 156.048 100.356 156C100.356 155.952 100.35 155.904 100.338 155.856ZM108.37 155.892C108.082 155.832 107.848 155.682 107.668 155.442C107.488 155.19 107.398 154.914 107.398 154.614V154.542C107.398 154.29 107.5 154.092 107.704 153.948C107.908 153.792 108.13 153.744 108.37 153.804C109.102 153.984 109.87 154.074 110.674 154.074C111.934 154.074 112.564 153.75 112.564 153.102C112.564 152.778 112.36 152.532 111.952 152.364C111.556 152.196 110.848 152.1 109.828 152.076C109.588 152.064 109.378 151.974 109.198 151.806C109.018 151.626 108.928 151.416 108.928 151.176C108.928 150.936 109.012 150.732 109.18 150.564C109.36 150.384 109.57 150.288 109.81 150.276C111.574 150.228 112.456 149.904 112.456 149.304C112.456 148.752 111.814 148.476 110.53 148.476C109.954 148.476 109.288 148.584 108.532 148.8C108.28 148.86 108.052 148.824 107.848 148.692C107.656 148.548 107.56 148.35 107.56 148.098V148.008C107.56 147.696 107.65 147.42 107.83 147.18C108.022 146.94 108.262 146.79 108.55 146.73C109.318 146.55 110.08 146.46 110.836 146.46C112.216 146.46 113.302 146.694 114.094 147.162C114.898 147.63 115.3 148.194 115.3 148.854C115.3 149.382 115.114 149.844 114.742 150.24C114.37 150.624 113.812 150.906 113.068 151.086C113.056 151.086 113.05 151.092 113.05 151.104C113.05 151.128 113.062 151.14 113.086 151.14C113.77 151.224 114.328 151.488 114.76 151.932C115.192 152.376 115.408 152.892 115.408 153.48C115.408 154.296 115.012 154.95 114.22 155.442C113.44 155.934 112.312 156.18 110.836 156.18C110.08 156.18 109.258 156.084 108.37 155.892ZM118.263 156C117.987 156 117.747 155.898 117.543 155.694C117.339 155.49 117.237 155.25 117.237 154.974V147.666C117.237 147.39 117.339 147.15 117.543 146.946C117.747 146.742 117.987 146.64 118.263 146.64H119.109C119.385 146.64 119.625 146.742 119.829 146.946C120.033 147.15 120.135 147.39 120.135 147.666V152.022H120.153H120.171L122.385 147.558C122.685 146.946 123.177 146.64 123.861 146.64H124.743C125.019 146.64 125.259 146.742 125.463 146.946C125.667 147.15 125.769 147.39 125.769 147.666V154.974C125.769 155.25 125.667 155.49 125.463 155.694C125.259 155.898 125.019 156 124.743 156H123.897C123.621 156 123.381 155.898 123.177 155.694C122.973 155.49 122.871 155.25 122.871 154.974V150.618H122.853H122.835L120.621 155.082C120.321 155.694 119.829 156 119.145 156H118.263ZM128.639 148.836C128.363 148.836 128.123 148.734 127.919 148.53C127.715 148.326 127.613 148.086 127.613 147.81V147.666C127.613 147.39 127.715 147.15 127.919 146.946C128.123 146.742 128.363 146.64 128.639 146.64H135.155C135.431 146.64 135.671 146.742 135.875 146.946C136.079 147.15 136.181 147.39 136.181 147.666V147.81C136.181 148.086 136.079 148.326 135.875 148.53C135.671 148.734 135.431 148.836 135.155 148.836H133.553C133.457 148.836 133.409 148.89 133.409 148.998V154.974C133.409 155.25 133.307 155.49 133.103 155.694C132.899 155.898 132.659 156 132.383 156H131.411C131.135 156 130.895 155.898 130.691 155.694C130.487 155.49 130.385 155.25 130.385 154.974V148.998C130.385 148.89 130.337 148.836 130.241 148.836H128.639ZM140.894 151.302V153.876C140.894 153.996 140.936 154.062 141.02 154.074C141.2 154.122 141.404 154.146 141.632 154.146C142.232 154.146 142.67 154.014 142.946 153.75C143.222 153.486 143.36 153.078 143.36 152.526C143.36 152.058 143.21 151.698 142.91 151.446C142.622 151.182 142.19 151.05 141.614 151.05C141.47 151.05 141.278 151.074 141.038 151.122C140.942 151.146 140.894 151.206 140.894 151.302ZM139.004 156.054C138.716 156.018 138.476 155.892 138.284 155.676C138.104 155.448 138.014 155.184 138.014 154.884V147.666C138.014 147.39 138.11 147.15 138.302 146.946C138.506 146.742 138.746 146.64 139.022 146.64H139.868C140.144 146.64 140.384 146.742 140.588 146.946C140.792 147.15 140.894 147.39 140.894 147.666V148.962C140.894 148.998 140.906 149.034 140.93 149.07C140.954 149.094 140.984 149.1 141.02 149.088C141.308 149.04 141.656 149.016 142.064 149.016C143.348 149.016 144.344 149.334 145.052 149.97C145.76 150.594 146.114 151.446 146.114 152.526C146.114 153.762 145.73 154.68 144.962 155.28C144.194 155.88 142.988 156.18 141.344 156.18C140.492 156.18 139.712 156.138 139.004 156.054Z" fill="#737589" fill-opacity="0.3"/>
<path fill-rule="evenodd" clip-rule="evenodd" d="M100.5 74.3857C101.093 74.3857 101.656 74.6448 102.042 75.0951L110.167 84.5742C110.897 85.426 110.799 86.7083 109.947 87.4384C109.095 88.1685 107.813 88.0698 107.083 87.2181L102.531 81.908V111.625C102.531 112.747 101.622 113.657 100.5 113.657C99.3782 113.657 98.4688 112.747 98.4688 111.625V81.908L93.9172 87.2181C93.1872 88.0698 91.9048 88.1685 91.0531 87.4384C90.2013 86.7083 90.1027 85.426 90.8328 84.5742L98.9579 75.0951C99.3435 74.6448 99.9071 74.3857 100.5 74.3857ZM86.947 93.3494C88.0688 93.3432 88.9833 94.2475 88.9896 95.3693C88.9958 96.4911 88.0914 97.4056 86.9697 97.4118C84.0081 97.4283 81.9089 97.5052 80.3157 97.7979C78.7806 98.0798 77.8921 98.5327 77.2327 99.1919C76.4832 99.9416 75.9945 100.994 75.7273 102.981C75.4522 105.027 75.4479 107.738 75.4479 111.626V114.334C75.4479 118.222 75.4522 120.933 75.7273 122.979C75.9945 124.966 76.4832 126.018 77.2327 126.768C77.9823 127.518 79.0347 128.006 81.022 128.274C83.0677 128.549 85.7791 128.553 89.6667 128.553H111.333C115.221 128.553 117.932 128.549 119.978 128.274C121.965 128.006 123.018 127.518 123.767 126.768C124.517 126.018 125.006 124.966 125.273 122.979C125.548 120.933 125.552 118.222 125.552 114.334V111.626C125.552 107.738 125.548 105.027 125.273 102.981C125.006 100.994 124.517 99.9416 123.767 99.1919C123.108 98.5327 122.219 98.0798 120.684 97.7979C119.091 97.5052 116.992 97.4283 114.03 97.4118C112.909 97.4056 112.004 96.4911 112.01 95.3693C112.017 94.2475 112.931 93.3432 114.053 93.3494C116.982 93.3657 119.423 93.4358 121.418 93.8022C123.471 94.1793 125.218 94.8977 126.64 96.3193C128.27 97.9495 128.971 100.002 129.299 102.44C129.615 104.788 129.615 107.774 129.615 111.477V114.483C129.615 118.187 129.615 121.172 129.299 123.52C128.971 125.958 128.27 128.01 126.64 129.641C125.01 131.271 122.957 131.972 120.519 132.3C118.171 132.616 115.186 132.615 111.482 132.615H89.5181C85.8142 132.615 82.8287 132.616 80.4807 132.3C78.0429 131.972 75.9903 131.271 74.3601 129.641C72.7299 128.01 72.0288 125.958 71.701 123.52C71.3853 121.172 71.3854 118.187 71.3854 114.483V111.477C71.3854 107.773 71.3853 104.788 71.701 102.44C72.0288 100.002 72.7299 97.9495 74.3601 96.3193C75.7818 94.8977 77.5289 94.1793 79.5818 93.8022C81.5766 93.4358 84.0179 93.3657 86.947 93.3494Z" fill="#737589" fill-opacity="0.3" stroke="black" stroke-width="0.008"/>
</svg>
